<svg width="32" height="32" viewBox="0 0 32 32" fill="none" xmlns="http://www.w3.org/2000/svg">
<path d="M27.2731 17.3841H26.2731V18.6149V29.2385C26.2731 29.6614 25.9938 30.0053 25.6502 30.0053H20.3204C19.9768 30.0053 19.6974 29.6614 19.6974 29.2385V23.6076C19.6974 21.0919 18.0355 19.048 15.9927 19.048C13.9493 19.048 12.2873 21.0917 12.2873 23.6076V29.2385C12.2873 29.6614 12.0079 30.0053 11.6643 30.0053H6.33365C5.99006 30.0053 5.71068 29.6614 5.71068 29.2385V18.6149V17.3841H4.71068H1.623C1.35777 17.3841 1.12463 17.1803 1.03737 16.88L1.03713 16.8791C0.947523 16.5716 1.0239 16.2313 1.22525 16.0254C1.22542 16.0252 1.22558 16.025 1.22575 16.0249L15.594 1.40675C15.8251 1.17186 16.1589 1.17254 16.3885 1.40623L16.3886 1.40633L30.6261 15.8901L30.6687 15.9334L30.7149 15.9707C30.8889 16.1111 31 16.3497 31 16.6174C31 17.0406 30.7211 17.3841 30.377 17.3841H30.3769H30.3768H30.3767H30.3766H30.3765H30.3764H30.3763H30.3762H30.3761H30.376H30.3759H30.3758H30.3757H30.3756H30.3755H30.3754H30.3753H30.3752H30.3751H30.375H30.3749H30.3748H30.3747H30.3746H30.3745H30.3744H30.3743H30.3742H30.3741H30.374H30.3739H30.3738H30.3737H30.3736H30.3735H30.3734H30.3733H30.3732H30.3731H30.373H30.3729H30.3728H30.3727H30.3726H30.3725H30.3724H30.3723H30.3722H30.3721H30.372H30.3719H30.3718H30.3717H30.3716H30.3715H30.3714H30.3713H30.3712H30.3711H30.371H30.3709H30.3708H30.3707H30.3706H30.3705H30.3704H30.3703H30.3702H30.3701H30.37H30.3699H30.3698H30.3697H30.3696H30.3695H30.3694H30.3693H30.3692H30.3691H30.369H30.3689H30.3688H30.3687H30.3686H30.3685H30.3684H30.3683H30.3682H30.3681H30.368H30.3679H30.3678H30.3677H30.3676H30.3675H30.3674H30.3673H30.3672H30.3671H30.367H30.3669H30.3668H30.3667H30.3666H30.3665H30.3664H30.3663H30.3662H30.3661H30.366H30.3659H30.3658H30.3657H30.3656H30.3655H30.3654H30.3653H30.3652H30.3651H30.365H30.3649H30.3648H30.3647H30.3646H30.3645H30.3644H30.3643H30.3642H30.3641H30.364H30.3639H30.3638H30.3637H30.3636H30.3635H30.3634H30.3633H30.3632H30.3631H30.363H30.3629H30.3628H30.3627H30.3626H30.3625H30.3624H30.3623H30.3622H30.3621H30.362H30.3619H30.3618H30.3617H30.3616H30.3615H30.3614H30.3613H30.3612H30.3611H30.361H30.3609H30.3608H27.2731Z" stroke="#CECECE" stroke-width="2"/>
</svg>
