<svg width="32" height="32" viewBox="0 0 32 32" fill="none" xmlns="http://www.w3.org/2000/svg">
<g clip-path="url(#clip0_1513_595)">
<path d="M32 16.6174C32 17.72 31.2737 18.6149 30.377 18.6149C30.3738 18.6149 30.3673 18.6149 30.3608 18.6149H27.2731V29.2385C27.2731 30.3412 26.546 31.2361 25.6502 31.2361H20.3204C19.4245 31.2361 18.6974 30.3412 18.6974 29.2385V23.6076C18.6974 21.7719 17.4834 20.2788 15.9927 20.2788C14.5012 20.2788 13.2873 21.7719 13.2873 23.6076V29.2385C13.2873 30.3412 12.5602 31.2361 11.6643 31.2361H6.33368C5.4378 31.2361 4.71071 30.3412 4.71071 29.2385V18.6149H1.62303C0.93814 18.6149 0.326284 18.0875 0.0958236 17.2945C-0.135449 16.5006 0.0609298 15.6146 0.587581 15.0773L14.9573 0.457675C15.5578 -0.152558 16.4261 -0.152558 17.0257 0.457675L31.2632 14.9415C31.7062 15.2991 32 15.9163 32 16.6174Z" fill="#0075FF"/>
</g>
<defs>
<clipPath id="clip0_1513_595">
<rect width="32" height="32" fill="white"/>
</clipPath>
</defs>
</svg>
