<svg width="32" height="32" viewBox="0 0 32 32" fill="none" xmlns="http://www.w3.org/2000/svg">
<path d="M29.9877 30.3608L28.1086 8.84898C28.0513 8.16326 27.4844 7.63429 26.8028 7.63429H21.8662C20.7133 3.76163 18.7386 0 16.006 0C13.267 0 11.2987 3.76163 10.133 7.63429H5.19642C4.52122 7.63429 3.95431 8.16326 3.89061 8.84898L2.00515 30.5502C1.93508 31.5167 2.59117 32 3.31096 32H28.7074C28.7137 32 28.7137 32 28.7201 32C29.5482 32 30.0896 31.2686 29.9877 30.3608V30.3608ZM16.006 2.66449C16.9169 2.66449 18.159 4.8849 19.1081 7.63429H12.9039C13.8466 4.8849 15.0951 2.66449 16.006 2.66449ZM4.73142 29.3355L6.39394 10.3053H9.45782C9.08837 12.062 8.90365 13.649 8.90365 14.6939C8.90365 15.4318 9.48967 16.0261 10.2095 16.0261C10.9292 16.0261 11.5153 15.4318 11.5153 14.6939C11.5153 13.4008 11.751 11.8531 12.1204 10.3053H19.8852C20.2546 11.8531 20.4903 13.4008 20.4903 14.6939C20.4903 15.4318 21.0763 16.0261 21.7961 16.0261C22.5159 16.0261 23.1019 15.4318 23.1019 14.6939C23.1019 13.649 22.9172 12.062 22.5478 10.3053H25.6117L27.2742 29.3355H4.73142V29.3355Z" fill="#0075FF"/>
<line x1="4" y1="20" x2="28" y2="20" stroke="#0075FF" stroke-width="20"/>
<line x1="11.9102" y1="19.0898" x2="20.1019" y2="19.0898" stroke="white" stroke-width="2" stroke-linecap="round"/>
<line x1="10.8911" y1="23.3592" x2="21.1211" y2="23.3592" stroke="white" stroke-width="2" stroke-linecap="round"/>
</svg>
