<svg width="170" height="170" viewBox="0 0 170 170" fill="none" xmlns="http://www.w3.org/2000/svg">
<g clip-path="url(#clip0_1505_322)">
<path fill-rule="evenodd" clip-rule="evenodd" d="M76.4322 0.550058C55.7809 2.96422 39.7459 10.6804 25.6369 24.2486C16.5418 32.9885 9.31149 44.2495 4.87855 56.4731C-3.33002 79.1479 -0.975978 105.245 10.5191 126.071C25.9426 154.018 58.3489 173.438 93.8277 169.496C107.05 168.014 123.085 162.498 132.669 155.347L141.459 148.441C145.204 145.522 151.593 138.142 154.131 134.429C173.177 106.789 175.287 73.7848 159.313 43.8522C156.913 39.3601 153.779 34.8832 150.768 31.2008L143.14 23.1179C125.317 7.24249 102.113 -2.47529 76.4322 0.550058ZM77.3188 3.36149C65.3805 4.49218 54.665 8.03703 45.738 12.9265C39.7765 16.1963 32.5003 21.1774 28.1132 25.9905C26.4776 27.7782 24.6128 29.1839 23.0536 31.1549C19.2321 35.9986 17.9481 37.1751 14.4323 43.0271C11.9101 47.2596 9.57135 51.7976 7.79818 56.8398C-13.0825 116.079 35.0684 172.643 92.8952 166.761C135.681 162.391 170.777 125.2 166.635 77.345C162.966 35.0054 124.736 -1.13069 77.3188 3.36149Z" fill="#FEFEFE"/>
<path fill-rule="evenodd" clip-rule="evenodd" d="M106.423 110.12C111.024 110.12 116.711 110.746 120.502 108.775C123.513 107.201 126.417 103.84 126.815 99.3475C127.273 94.183 124.552 90.5465 121.801 88.5907C117.934 85.8404 113.608 86.4669 108.212 86.4669C107.875 82.9067 108.9 78.9035 106.928 76.4282C100.339 68.2537 70.7611 67.6425 61.2226 75.1142C58.2572 77.4367 58.7769 79.3466 58.7769 83.9916C58.7769 87.8878 58.7769 91.7841 58.7769 95.6804C58.7769 103.61 59.1285 108.79 63.057 114.444C70.2108 124.727 84.0293 128.333 95.1575 122.206C98.7192 120.25 102.204 117.041 104.283 113.771C104.925 112.748 105.644 111.021 106.423 110.12ZM62.0022 78.5215C64.1117 80.3856 74.5826 82.5095 79.413 80.5078C82.302 79.316 83.0816 77.5742 85.6191 76.1073C88.982 74.1668 91.1526 74.6863 93.8735 73.5404C85.1146 72.1041 65.9307 72.2722 62.0022 78.5215ZM61.6048 89.2019C69.9357 91.0202 72.4884 92.9759 83.265 93.0371C87.484 93.0676 90.9997 92.8995 95.0964 92.1356C99.3612 91.341 101.792 90.0881 105.277 89.1866L105.262 84.4652C91.9933 90.8521 74.7202 91.2493 61.7271 84.4652L61.6048 89.2019ZM65.1359 83.0442C73.3139 85.9932 76.6003 86.7724 86.1999 86.3446C92.8799 86.0543 100.691 85.0153 105.124 80.3856C102.816 76.9783 91.6723 74.5641 85.4662 79.6216C83.9529 80.844 83.7083 81.5163 81.7976 82.54C75.4998 85.9168 69.7064 83.4109 65.1359 83.0442ZM108.12 101.166L107.402 107.186C115.289 107.201 120.899 107.828 123.406 101.456C126.081 94.7025 120.548 89.2936 114.341 89.2936H108.12V101.166ZM105.292 92.2272C96.6708 94.5039 93.8582 96.2152 83.265 95.9249C74.4909 95.6804 69.4007 94.1219 61.7271 92.1356C60.6876 100.646 61.9105 107.965 66.0224 113.649C74.5673 125.46 92.9564 124.757 100.691 113.832C105.873 106.544 105.292 102.495 105.292 92.2272Z" fill="#FEFEFE"/>
<path fill-rule="evenodd" clip-rule="evenodd" d="M27.7616 76.6879C24.7961 78.4451 22.0752 79.7286 22.0294 85.0917C22.0141 87.3531 22.6561 89.1713 23.6956 90.5465C25.056 92.3647 25.5299 92.3189 27.7158 93.4954C26.7986 97.025 24.9337 99.3475 26.982 103.717C28.0215 105.964 30.8647 108.806 33.9219 109.142C35.8938 107.614 37.0708 103.794 37.0096 100.432C36.9332 96.1388 34.518 94.7789 32.8671 92.8078C33.555 92.0286 41.0146 87.1239 36.1078 80.3398C34.8849 78.6743 34.0289 78.5673 32.9436 77.4214C34.5792 75.6795 36.8568 73.3264 36.8568 69.3843C36.8415 56.2287 29.2138 61.6834 26.982 66.8479C25.1019 71.2484 26.9209 73.0973 27.7616 76.6879ZM28.3731 90.6229C32.699 90.6993 36.0772 87.1086 34.1053 82.7081C32.6379 84.0985 32.5461 84.6333 30.8494 86.039C29.5654 87.0933 28.7246 88.3004 28.3731 90.6229ZM25.9273 88.4073C27.4406 83.7318 30.6507 83.7165 31.9806 80.4314C26.3247 76.9935 22.7784 85.1834 25.9273 88.4073ZM30.6354 75.3281C33.4939 73.9223 35.4505 68.3606 32.8213 64.5407C29.5042 66.4354 27.303 71.4776 30.6354 75.3281ZM32.8213 105.704C34.7167 103.045 35.0683 98.1251 30.6354 94.7942L29.8099 95.9554C28.2049 99.2252 28.7705 103.855 32.8213 105.704Z" fill="#FEFEFE"/>
<path fill-rule="evenodd" clip-rule="evenodd" d="M133.158 69.3843C133.158 74.1974 135.451 75.0072 137.072 77.4214L135.329 78.6743C133.755 79.8966 132.379 82.7998 132.379 85.0917C132.379 89.3394 135.054 91.066 136.46 92.2272C137.148 92.7926 136.751 92.4564 137.041 92.762C135.467 94.4886 133.174 96.4138 132.99 100.081C132.837 103.106 133.999 107.858 135.834 108.958C137.163 109.508 143.859 106.804 143.859 99.3475C143.859 97.1472 142.758 95.1914 142.254 93.4954C144.485 92.2272 148.047 90.959 147.971 85.0917C147.894 79.5299 144.944 78.2923 142.208 76.6879C143.14 73.1125 144.99 70.9428 142.835 66.4812C141.719 64.1587 138.86 61.0875 135.513 61.0264C134.29 63.0892 133.158 66.2979 133.158 69.3843ZM141.612 90.6687C141.229 87.7962 140.664 87.7045 139.181 86.1918C138.447 85.4431 138.203 85.107 137.591 84.4958C136.506 83.3651 136.583 83.2276 135.65 82.922C134.366 87.6128 137.163 90.5159 141.612 90.6687ZM138.035 80.2481C139.013 82.815 142.009 84.618 142.987 86.039C143.66 87.0322 143.614 87.5211 144.333 88.4226C146.457 83.3957 144.027 78.0784 138.035 80.2481ZM136.002 69.751C136.002 72.5166 138.172 74.396 139.441 75.4809C141.841 71.3707 141.046 65.9923 136.873 64.449C136.567 66.0992 136.002 67.8717 136.002 69.751ZM137.072 105.795C140.893 103.565 142.59 99.76 139.487 94.6872C136.2 96.5666 134.641 100.921 137.072 105.795Z" fill="#FEFEFE"/>
<path fill-rule="evenodd" clip-rule="evenodd" d="M37.1778 56.5648C40.6477 56.794 40.449 51.9351 45.9825 47.0915C51.1797 42.5535 48.8716 43.6995 55.9643 38.7947C72.626 27.274 96.3957 28.0685 113.012 38.917C115.09 40.2616 116.481 41.3617 118.285 42.7827C120.013 44.112 121.449 45.915 122.902 47.3054C124.537 48.8487 125.668 50.2544 127.105 52.2407C127.763 53.1575 128.328 54.0895 128.985 55.1133C129.887 56.5801 130.239 56.9774 131.997 56.3815C132.73 53.3408 126.723 47.0304 124.705 44.769C115.274 34.1956 99.3153 27.3657 83.9988 27.4573C65.6861 27.5948 49.4677 36.6556 39.486 50.4683C38.2019 52.2254 35.9702 54.3646 37.1778 56.5648Z" fill="#FEFEFE"/>
<path fill-rule="evenodd" clip-rule="evenodd" d="M131.874 113.955C129.475 112.702 128.527 116.079 127.258 117.729C125.592 119.914 124.736 120.983 122.917 122.893C112.736 133.482 99.6975 140.083 83.265 139.777C71.6324 139.563 62.7054 135.743 54.879 130.64C49.9263 127.416 50.0486 126.79 47.1137 124.146C44.9889 122.252 42.1457 118.768 40.6324 116.384C40.021 115.422 39.5471 113.955 38.5382 113.664C33.4939 112.213 40.0668 120.525 40.5713 121.197L47.4194 128.577C48.3671 129.387 48.8716 129.739 50.0333 130.732C67.2759 145.263 95.7995 146.485 114.448 133.803C116.619 132.336 118.01 131.328 119.921 129.769C122.26 127.89 133.51 116.888 131.874 113.955Z" fill="#FEFEFE"/>
<path fill-rule="evenodd" clip-rule="evenodd" d="M84.9771 47.7333C86.2 35.9528 63.0417 36.7167 73.268 54.5174C74.3533 56.412 78.9697 63.2726 80.7887 63.4406C81.7976 63.5323 82.3173 62.8294 82.1797 61.7752C82.0116 60.5986 76.7226 56.5343 74.1699 49.9641C72.7177 46.2053 74.124 41.7437 78.4805 42.6452C83.0816 43.5925 81.1556 50.3461 84.9771 47.7333Z" fill="#E40082"/>
<path fill-rule="evenodd" clip-rule="evenodd" d="M85.7567 63.9754C88.9514 64.7699 94.8977 58.6123 95.8454 56.0148C98.0313 50.0405 90.2049 46.0525 86.1388 49.9641C83.4485 52.5616 85.3134 56.0606 87.4534 53.1117C90.2202 49.2765 92.9563 52.2866 93.2621 53.5242C93.9194 56.244 88.8597 59.7583 86.9795 61.0417C85.5885 61.9738 85.3134 62.2641 85.7567 63.9754Z" fill="#E40082"/>
<path d="M36.0008 43.4244L34.411 42.9202L31.2621 46.8776L32.1334 48.3292C32.485 48.9098 32.6837 49.3223 32.7601 49.5821C32.8213 49.8418 32.7448 50.1321 32.5156 50.4225C32.3168 50.6669 32.057 50.8197 31.7207 50.8656C31.3844 50.9114 31.1092 50.835 30.88 50.6516C30.7424 50.5447 30.6201 50.4225 30.5131 50.2697C30.4061 50.1016 30.2685 49.8724 30.1004 49.5668L25.7592 42.0646C25.6216 41.8506 25.484 41.5909 25.3006 41.2853C25.1324 40.9797 24.9949 40.7047 24.9184 40.4602C24.842 40.2157 24.8267 39.956 24.8726 39.6962C24.9031 39.4365 25.0407 39.1614 25.2547 38.8864C25.4687 38.6114 25.698 38.428 25.9579 38.3211C26.2024 38.2294 26.4623 38.1836 26.7069 38.1988C26.9667 38.2141 27.2113 38.26 27.4559 38.3363C27.7158 38.4127 28.0368 38.5044 28.4495 38.6419L36.7498 41.0867C37.3918 41.27 37.8198 41.4381 38.0338 41.6062C38.2631 41.7895 38.4007 42.0493 38.4312 42.3854C38.4771 42.7216 38.3854 43.0272 38.1714 43.2869C38.0491 43.4397 37.9115 43.5619 37.7739 43.6231C37.6364 43.6842 37.4835 43.73 37.3306 43.73C37.1778 43.73 36.9638 43.6842 36.7039 43.6231C36.4288 43.5467 36.1995 43.4855 36.0008 43.4244ZM30.1921 45.1816L32.5003 42.2785L27.3183 40.5519L30.1921 45.1816ZM42.054 36.6098L35.5728 31.6286L40.9076 38.3669C41.198 38.7336 41.3356 39.085 41.3203 39.3906C41.305 39.7115 41.1521 39.9865 40.877 40.2004C40.6171 40.3991 40.3267 40.4908 40.0057 40.4296C39.7 40.3838 39.3943 40.1699 39.0885 39.7879L32.9894 32.087C32.6378 31.6592 32.5308 31.2772 32.6378 30.9563C32.7296 30.6355 32.9741 30.3146 33.3563 30.0243L33.9677 29.5353C34.3346 29.245 34.625 29.077 34.839 29.0006C35.0683 28.9394 35.2823 28.97 35.4963 29.077C35.7103 29.1839 36.0313 29.3978 36.4441 29.7034L42.0846 33.9206L39.272 27.4573C39.0732 26.9837 38.9357 26.6322 38.8745 26.403C38.8134 26.1586 38.844 25.9447 38.9662 25.746C39.0732 25.5474 39.3178 25.3029 39.6847 25.0126L40.2961 24.5389C40.663 24.2333 41.0299 24.0653 41.3661 24.05C41.7024 24.0194 42.0387 24.2181 42.3903 24.6459L48.4894 32.3621C48.7798 32.7288 48.9174 33.0802 48.9021 33.3858C48.8868 33.7067 48.734 33.9817 48.4588 34.1956C48.199 34.4095 47.9085 34.4859 47.5875 34.4248C47.2818 34.379 46.9761 34.165 46.6857 33.783L41.3509 27.0601L44.6985 34.5165C44.9278 34.9901 45.0806 35.3568 45.1571 35.6013C45.2488 35.8305 45.2641 36.0903 45.2029 36.3958C45.1571 36.6862 44.9889 36.9459 44.6832 37.1904C44.4386 37.3737 44.2093 37.4807 43.9648 37.5113C43.7355 37.5265 43.5062 37.496 43.2922 37.4196C43.0782 37.3279 42.8795 37.2209 42.6807 37.0681C42.482 36.9154 42.268 36.7626 42.054 36.6098ZM46.4258 20.4287L49.2384 18.748C49.9874 18.3202 50.6447 18.0146 51.2562 17.8312C51.8676 17.6632 52.4943 17.6326 53.1516 17.7548C54.8178 18.0451 56.2394 19.1758 57.4011 21.1163C57.7833 21.7581 58.0737 22.3692 58.2724 22.9651C58.4712 23.561 58.5934 24.1417 58.6087 24.707C58.624 25.2724 58.5476 25.8377 58.3794 26.3878C58.2572 26.8156 58.0584 27.2129 57.8139 27.5643C57.5693 27.9157 57.2636 28.2519 56.912 28.5422C56.5604 28.8325 56.1324 29.1381 55.6433 29.4284L52.8153 31.0939C52.4179 31.3383 52.0969 31.4453 51.8218 31.4453C51.5466 31.4453 51.3173 31.3536 51.1339 31.1703C50.9352 31.0022 50.7365 30.7271 50.5377 30.391L45.8755 22.5373C45.6004 22.0789 45.5086 21.6817 45.6004 21.3455C45.6768 21.0094 45.9519 20.7038 46.4258 20.4287ZM48.2754 21.6511L52.5861 28.9089L54.2369 27.931C54.5885 27.7171 54.8637 27.549 55.0624 27.3962C55.2611 27.2587 55.4445 27.0906 55.6127 26.8767C55.7808 26.6781 55.9031 26.4489 55.9795 26.2197C56.3464 25.1807 56.0865 23.8972 55.2 22.3998C54.5732 21.3455 53.9312 20.6579 53.3045 20.3218C52.6778 19.9856 52.0816 19.8787 51.5313 20.0162C50.981 20.1537 50.3696 20.4135 49.7123 20.7955L48.2754 21.6511ZM69.4465 22.6596L68.407 21.3608L63.592 22.8735L63.5002 24.5695C63.4697 25.2418 63.4085 25.7002 63.3168 25.9599C63.2251 26.2044 62.9958 26.403 62.6442 26.51C62.3385 26.6017 62.0481 26.5711 61.7424 26.4336C61.4366 26.2808 61.2379 26.0669 61.1615 25.7919C61.1003 25.6238 61.0851 25.4557 61.0698 25.2571C61.0851 25.0737 61.0851 24.7987 61.1156 24.4625L61.7118 15.799C61.7424 15.5546 61.7576 15.2643 61.7729 14.9128C61.8035 14.5614 61.8494 14.2558 61.9258 14.0113C62.0022 13.7669 62.1245 13.5377 62.3079 13.339C62.4914 13.1557 62.7512 13.0029 63.0722 12.8959C63.4085 12.789 63.7143 12.7584 63.9741 12.8195C64.234 12.8807 64.4633 12.9876 64.6773 13.1404C64.876 13.2932 65.0594 13.4766 65.2276 13.6752C65.3957 13.8738 65.6097 14.1336 65.8696 14.4697L71.3878 21.1469C71.8158 21.6511 72.0757 22.0331 72.1521 22.2928C72.2438 22.5679 72.2133 22.8582 72.0451 23.1638C71.8923 23.4694 71.6477 23.668 71.3267 23.775C71.1432 23.8208 70.9598 23.8514 70.8069 23.8208C70.6541 23.7902 70.5165 23.7444 70.3789 23.6527C70.2567 23.561 70.1038 23.4235 69.9204 23.2096C69.7369 23.011 69.5841 22.8276 69.4465 22.6596ZM63.6531 20.8719L67.1995 19.7564L63.8671 15.4323L63.6531 20.8719ZM89.196 18.2438C89.196 18.641 89.1043 19.0689 88.9208 19.5425C88.7221 20.0009 88.4164 20.444 88.0037 20.9024C87.591 21.3455 87.0559 21.7122 86.4139 21.9873C85.7566 22.2776 85.0076 22.4151 84.1363 22.4304C83.479 22.4304 82.8829 22.3692 82.3479 22.247C81.8129 22.1248 81.3237 21.9414 80.8804 21.6817C80.4371 21.4219 80.0397 21.0858 79.6575 20.6579C79.3365 20.2607 79.0461 19.8328 78.8168 19.3592C78.5722 18.8702 78.4041 18.3507 78.2818 17.8007C78.1595 17.2659 78.0984 16.67 78.0984 16.0588C78.0831 15.0656 78.2206 14.1641 78.5111 13.3696C78.7862 12.5751 79.2142 11.9028 79.7492 11.3221C80.2843 10.7568 80.911 10.329 81.6447 10.0234C82.3784 9.73308 83.1427 9.58028 83.9682 9.565C84.9771 9.565 85.8789 9.76364 86.6738 10.1456C87.4534 10.5429 88.0648 11.0318 88.4928 11.6277C88.9056 12.2084 89.1196 12.7737 89.1348 13.2932C89.1348 13.5835 89.0278 13.8433 88.8291 14.0572C88.6304 14.2864 88.3858 14.3933 88.0954 14.3933C87.7744 14.3933 87.5298 14.3169 87.3617 14.1794C87.2088 14.0266 87.0254 13.7669 86.8267 13.3849C86.4904 12.7737 86.0929 12.3153 85.6496 12.0097C85.2063 11.7194 84.656 11.5666 84.014 11.5666C82.9746 11.5819 82.1491 11.9792 81.5377 12.7584C80.9416 13.553 80.6358 14.6836 80.6511 16.1199C80.6511 17.0978 80.804 17.8923 81.0791 18.5341C81.3543 19.1758 81.7364 19.6495 82.2409 19.9704C82.7453 20.2759 83.3262 20.4287 83.9988 20.4287C84.7172 20.4287 85.3286 20.2301 85.8178 19.8787C86.3222 19.512 86.6891 18.9772 86.9489 18.2896C87.0559 17.9535 87.1782 17.6937 87.3311 17.4798C87.4992 17.2659 87.7438 17.1589 88.0954 17.1589C88.4011 17.1589 88.661 17.2659 88.875 17.4645C89.089 17.6784 89.196 17.9382 89.196 18.2438ZM98.9026 10.7874C100.171 11.0013 101.226 11.4291 102.051 12.1014C102.877 12.7584 103.458 13.5988 103.764 14.6378C104.085 15.6615 104.13 16.8075 103.932 18.091C103.779 19.0383 103.504 19.894 103.122 20.6274C102.739 21.3608 102.25 21.972 101.639 22.4456C101.043 22.9346 100.339 23.2707 99.5446 23.4541C98.7497 23.6374 97.8631 23.6527 96.9001 23.4846C95.9371 23.3319 95.0964 23.0415 94.3932 22.6137C93.6901 22.1706 93.1245 21.6358 92.7118 20.9941C92.2838 20.3523 92.0086 19.6037 91.8863 18.7786C91.7487 17.9382 91.764 17.0672 91.9016 16.1352C92.0545 15.2031 92.3296 14.3628 92.727 13.6141C93.1245 12.8654 93.6289 12.2695 94.2404 11.7958C94.8365 11.3221 95.5244 11.0013 96.3193 10.8332C97.0988 10.6498 97.9549 10.6346 98.9026 10.7874ZM101.409 17.6784C101.562 16.7769 101.532 15.9671 101.348 15.2643C101.165 14.5614 100.829 13.9961 100.355 13.5682C99.8656 13.1404 99.2694 12.8807 98.5816 12.7584C98.0771 12.682 97.6033 12.7126 97.16 12.8195C96.7014 12.9418 96.304 13.1557 95.9371 13.4613C95.5702 13.7669 95.2645 14.1947 94.9894 14.7142C94.7295 15.249 94.5461 15.8602 94.4238 16.5477C94.3168 17.2506 94.3015 17.8923 94.3932 18.4882C94.4697 19.0689 94.6531 19.5884 94.9129 20.0009C95.1728 20.4287 95.4938 20.7649 95.876 21.0246C96.2581 21.2691 96.7014 21.4372 97.2058 21.5136C97.8326 21.6205 98.444 21.5594 99.0402 21.315C99.621 21.0858 100.125 20.6732 100.538 20.0468C100.966 19.4356 101.257 18.641 101.409 17.6784ZM116.16 18.8702L111.666 16.7617L110.321 19.6342L114.082 21.3914C114.418 21.5594 114.647 21.7581 114.739 21.9873C114.846 22.2317 114.831 22.4762 114.708 22.736C114.586 22.9957 114.403 23.1638 114.158 23.2402C113.913 23.3166 113.608 23.2707 113.271 23.1027L109.511 21.3455L107.768 25.0432C107.554 25.5168 107.279 25.8224 106.958 25.9447C106.637 26.0822 106.316 26.0669 105.98 25.8988C105.644 25.746 105.43 25.5015 105.323 25.1654C105.216 24.8445 105.277 24.4473 105.491 23.9736L109.557 15.3254C109.71 14.9892 109.893 14.7448 110.092 14.592C110.275 14.4239 110.505 14.3475 110.749 14.3475C111.009 14.3475 111.3 14.4239 111.621 14.5767L116.986 17.0978C117.353 17.2812 117.582 17.4798 117.689 17.7243C117.781 17.9687 117.781 18.2285 117.658 18.4882C117.536 18.748 117.337 18.9161 117.093 19.0077C116.833 19.0841 116.527 19.0383 116.16 18.8702ZM126.387 24.7529L122.198 22.0942L120.486 24.7834L124.002 26.9989C124.323 27.1976 124.522 27.4268 124.583 27.6712C124.659 27.931 124.614 28.1755 124.461 28.4199C124.308 28.6644 124.094 28.8019 123.849 28.8478C123.589 28.8783 123.299 28.8019 122.978 28.6033L119.478 26.3725L117.292 29.8409C117.001 30.284 116.695 30.5438 116.374 30.6202C116.038 30.7119 115.717 30.666 115.411 30.4674C115.09 30.2688 114.907 29.9937 114.846 29.6576C114.785 29.3061 114.892 28.9242 115.152 28.4963L120.272 20.4135C120.471 20.1079 120.685 19.8787 120.884 19.7412C121.098 19.6037 121.342 19.5578 121.587 19.5884C121.832 19.6342 122.107 19.7412 122.412 19.9245L127.426 23.1027C127.763 23.3166 127.977 23.561 128.038 23.8055C128.114 24.0653 128.068 24.3097 127.915 24.5542C127.763 24.814 127.549 24.9515 127.289 24.9973C127.029 25.0432 126.723 24.9668 126.387 24.7529ZM136.338 32.7288L132.027 29.0311L130.04 31.3536L134.014 34.7609C134.305 35.0054 134.473 35.2652 134.504 35.5096C134.534 35.7694 134.458 35.9986 134.274 36.2125C134.091 36.4264 133.877 36.5486 133.617 36.5486C133.357 36.5639 133.082 36.4417 132.776 36.1972L128.817 32.8052L126.509 35.4944L130.973 39.299C131.263 39.5587 131.431 39.8337 131.462 40.0935C131.508 40.3685 131.416 40.613 131.217 40.8422C131.034 41.0714 130.804 41.1936 130.529 41.1936C130.254 41.2089 129.964 41.0867 129.673 40.8269L124.461 36.3806C124.048 36.0139 123.834 35.6624 123.803 35.3263C123.788 34.9901 123.941 34.6081 124.293 34.1956L130.376 27.0906C130.621 26.8156 130.85 26.6322 131.08 26.5253C131.309 26.4183 131.538 26.403 131.783 26.4794C132.027 26.5406 132.287 26.6933 132.562 26.9225L137.607 31.2466C137.912 31.5064 138.081 31.7662 138.111 32.0259C138.142 32.3009 138.065 32.5301 137.882 32.7593C137.683 32.9732 137.454 33.0955 137.194 33.1108C136.934 33.1108 136.644 32.9885 136.338 32.7288ZM145.433 43.6231L142.177 38.9781L139.67 40.7352L142.666 45.0135C142.896 45.3191 142.987 45.6094 142.957 45.8692C142.926 46.1136 142.789 46.3275 142.559 46.4803C142.33 46.6484 142.085 46.7095 141.841 46.6484C141.581 46.6026 141.336 46.4192 141.122 46.0983L138.111 41.8201L135.222 43.8523L138.585 48.6653C138.814 48.9862 138.906 49.2765 138.875 49.5515C138.845 49.8266 138.692 50.0405 138.447 50.2238C138.203 50.3919 137.958 50.4377 137.683 50.3766C137.423 50.3155 137.179 50.1321 136.949 49.8113L133.021 44.2037C132.7 43.7606 132.578 43.3633 132.639 43.0272C132.7 42.691 132.944 42.3701 133.403 42.0493L141.046 36.6862C141.352 36.4722 141.627 36.35 141.871 36.3042C142.116 36.2583 142.361 36.3042 142.575 36.4417C142.789 36.5639 143.003 36.7778 143.201 37.0681L147.023 42.5077C147.252 42.8285 147.359 43.1341 147.313 43.3939C147.283 43.6536 147.145 43.8675 146.916 44.0356C146.671 44.2037 146.427 44.2648 146.167 44.2037C145.907 44.1426 145.662 43.9592 145.433 43.6231Z" fill="#FEFEFE"/>
<path d="M32.3169 126.392L31.2316 124.895L26.3095 128.486C26.0343 128.684 25.7745 128.776 25.5452 128.745C25.3159 128.73 25.1325 128.608 24.9796 128.409C24.842 128.211 24.7809 127.997 24.8267 127.767C24.8726 127.538 25.0407 127.324 25.3159 127.11L30.238 123.535L29.1374 122.038C28.9692 121.808 28.8928 121.594 28.9081 121.411C28.9387 121.212 29.0304 121.06 29.1985 120.937C29.382 120.815 29.5501 120.769 29.7488 120.815C29.9323 120.861 30.1157 120.983 30.2685 121.212L33.448 125.567C33.6162 125.812 33.6926 126.026 33.6773 126.209C33.662 126.408 33.555 126.56 33.3869 126.683C33.2187 126.805 33.0506 126.851 32.8519 126.805C32.6684 126.774 32.485 126.637 32.3169 126.392Z" fill="#FEFEFE"/>
<path d="M34.5333 128.241L32.7449 129.845L35.2059 132.565L36.9944 130.961C37.2389 130.732 37.4835 130.609 37.7128 130.609C37.9421 130.609 38.1408 130.701 38.309 130.9C38.4924 131.083 38.5535 131.297 38.5382 131.526C38.523 131.755 38.3854 131.985 38.1255 132.214L33.234 136.645C32.9741 136.874 32.7296 136.996 32.485 136.981C32.2557 136.981 32.057 136.889 31.8888 136.691C31.7207 136.507 31.6443 136.293 31.6748 136.064C31.6901 135.835 31.843 135.606 32.0876 135.377L34.1817 133.497L31.7207 130.777L29.6418 132.657C29.3819 132.901 29.1374 133.008 28.8928 133.008C28.6635 133.008 28.4648 132.901 28.2966 132.718C28.1132 132.535 28.0521 132.321 28.0673 132.092C28.0979 131.862 28.2355 131.633 28.4954 131.404L33.3869 126.988C33.6467 126.744 33.8913 126.637 34.1206 126.637C34.3499 126.637 34.5486 126.728 34.7167 126.912C34.8849 127.11 34.9613 127.309 34.946 127.553C34.9308 127.783 34.7932 128.012 34.5333 128.241Z" fill="#FEFEFE"/>
<path d="M42.7725 136.798L39.914 134.261L38.5535 135.804L41.1827 138.142C41.3815 138.31 41.4885 138.478 41.5037 138.646C41.519 138.83 41.4732 138.983 41.3356 139.12C41.2133 139.258 41.0604 139.334 40.8923 139.334C40.7242 139.349 40.5407 139.258 40.342 139.09L37.7128 136.752L36.1231 138.539L39.0733 141.152C39.2873 141.336 39.3943 141.519 39.4096 141.702C39.4248 141.886 39.3637 142.054 39.2261 142.207C39.1038 142.344 38.9357 142.42 38.7523 142.436C38.5688 142.436 38.3854 142.344 38.1867 142.161L34.732 139.105C34.4569 138.86 34.3193 138.631 34.304 138.402C34.2888 138.173 34.411 137.913 34.6556 137.638L38.8287 132.947C38.9816 132.764 39.1497 132.642 39.3026 132.565C39.4554 132.504 39.6236 132.489 39.7764 132.55C39.9446 132.596 40.1127 132.703 40.2961 132.855L43.6438 135.82C43.8425 136.003 43.9495 136.186 43.9648 136.354C43.9954 136.538 43.9342 136.691 43.8119 136.843C43.6743 136.996 43.5215 137.057 43.3381 137.073C43.1699 137.073 42.9712 136.981 42.7725 136.798Z" fill="#FEFEFE"/>
<path d="M47.2207 147.417L47.4805 146.317L44.6373 144.437L43.7202 145.11C43.3533 145.369 43.0782 145.522 42.91 145.583C42.7419 145.644 42.5432 145.614 42.3444 145.476C42.161 145.354 42.0387 145.186 41.9929 144.957C41.947 144.743 41.9776 144.544 42.0846 144.376C42.1457 144.285 42.2374 144.193 42.3292 144.117C42.4362 144.04 42.5737 143.933 42.7725 143.796L47.5722 140.465C47.7098 140.373 47.878 140.266 48.0614 140.129C48.2601 139.991 48.4283 139.899 48.5964 139.823C48.7493 139.762 48.9327 139.731 49.1008 139.747C49.2843 139.762 49.483 139.823 49.6664 139.96C49.8651 140.083 50.0027 140.236 50.0792 140.404C50.1709 140.556 50.2167 140.724 50.2167 140.893C50.2167 141.076 50.2014 141.244 50.1709 141.412C50.125 141.58 50.0792 141.809 50.018 142.084L48.841 147.799C48.7493 148.227 48.6576 148.532 48.5506 148.685C48.4436 148.838 48.2754 148.945 48.0614 148.991C47.8321 149.037 47.6181 148.991 47.4347 148.868C47.3277 148.792 47.236 148.716 47.1901 148.624C47.129 148.532 47.0984 148.425 47.0984 148.318C47.0831 148.227 47.0984 148.074 47.129 147.891C47.1595 147.707 47.1901 147.554 47.2207 147.417ZM45.7226 143.628L47.8015 145.018L48.6728 141.443L45.7226 143.628Z" fill="#FEFEFE"/>
<path d="M50.5224 146.439L52.3262 142.848C52.4791 142.543 52.6625 142.344 52.8765 142.252C53.0905 142.176 53.3045 142.191 53.5338 142.298C53.7631 142.42 53.9159 142.589 53.9771 142.802C54.0382 143.032 53.9924 143.291 53.8395 143.597L51.9899 147.279C51.7912 147.692 51.6536 148.059 51.6078 148.395C51.5619 148.716 51.623 149.021 51.7759 149.296C51.944 149.571 52.2345 149.816 52.6625 150.03C53.2586 150.32 53.7478 150.366 54.1452 150.182C54.5579 149.984 54.9095 149.571 55.2305 148.93L57.0954 145.232C57.2483 144.926 57.4317 144.728 57.6457 144.636C57.8597 144.56 58.0737 144.575 58.303 144.682C58.5323 144.804 58.6699 144.972 58.731 145.186C58.8074 145.415 58.7616 145.675 58.6087 145.981L56.805 149.587C56.5146 150.167 56.2088 150.626 55.9031 150.962C55.5821 151.298 55.2 151.527 54.7414 151.665C54.3439 151.787 53.9312 151.802 53.5185 151.741C53.0905 151.68 52.6472 151.527 52.1733 151.283C51.5925 150.992 51.1339 150.687 50.7823 150.351C50.4307 150.03 50.1862 149.663 50.0486 149.281C49.9263 148.884 49.8957 148.456 49.9721 147.982C50.0639 147.524 50.232 147.004 50.5224 146.439Z" fill="#FEFEFE"/>
<path d="M64.5856 148.823L62.8583 148.15L60.6418 153.804C60.5195 154.125 60.3514 154.338 60.1374 154.445C59.9386 154.552 59.7246 154.552 59.4801 154.461C59.2508 154.369 59.0979 154.216 59.0062 154.002C58.9298 153.788 58.945 153.513 59.0673 153.193L61.2838 147.524L59.5718 146.852C59.2966 146.745 59.1285 146.607 59.0368 146.439C58.945 146.271 58.945 146.088 59.0215 145.889C59.0979 145.69 59.2355 145.568 59.4189 145.507C59.6023 145.431 59.8163 145.461 60.0762 145.553L65.09 147.524C65.3652 147.631 65.5486 147.768 65.625 147.936C65.7167 148.12 65.7167 148.303 65.6403 148.486C65.5792 148.685 65.4416 148.807 65.2582 148.884C65.0747 148.945 64.8607 148.93 64.5856 148.823Z" fill="#FEFEFE"/>
<path d="M67.337 149.052L66.7409 151.374L70.2872 152.26L70.8834 149.938C70.9598 149.617 71.0974 149.388 71.2961 149.25C71.4795 149.128 71.7088 149.098 71.9381 149.159C72.1827 149.22 72.3661 149.342 72.4884 149.556C72.5954 149.755 72.6107 150.03 72.519 150.366L70.8987 156.753C70.8222 157.089 70.6847 157.318 70.486 157.44C70.2872 157.578 70.0579 157.608 69.8287 157.547C69.5841 157.486 69.4007 157.349 69.2936 157.135C69.1866 156.936 69.1866 156.661 69.2631 156.34L69.9509 153.605L66.4046 152.704L65.7167 155.439C65.625 155.775 65.4874 156.004 65.2887 156.126C65.09 156.264 64.876 156.294 64.6314 156.233C64.3868 156.172 64.2034 156.035 64.0964 155.836C64.0047 155.622 63.9894 155.362 64.0658 155.026L65.6862 148.639C65.7779 148.303 65.9002 148.074 66.0989 147.936C66.2823 147.814 66.4963 147.784 66.7562 147.845C67.0008 147.906 67.1842 148.043 67.2912 148.242C67.3982 148.441 67.4135 148.716 67.337 149.052Z" fill="#FEFEFE"/>
<path d="M78.9085 151.634L75.1329 151.115L74.8577 153.162L78.343 153.636C78.5875 153.681 78.771 153.758 78.8932 153.895C79.0003 154.018 79.0461 154.186 79.0155 154.369C78.985 154.552 78.9085 154.705 78.771 154.797C78.6181 154.904 78.4194 154.934 78.1595 154.904L74.6743 154.43L74.3533 156.783L78.2665 157.318C78.5417 157.364 78.7251 157.456 78.8474 157.593C78.9544 157.731 79.0003 157.899 78.9697 158.113C78.9544 158.296 78.8627 158.449 78.7098 158.556C78.557 158.663 78.3582 158.693 78.0831 158.663L73.5279 158.036C73.161 157.99 72.9164 157.868 72.7789 157.685C72.6413 157.501 72.5954 157.226 72.6413 156.86L73.4973 150.626C73.5279 150.396 73.589 150.198 73.6807 150.06C73.7724 149.907 73.8947 149.816 74.0629 149.77C74.2157 149.724 74.4145 149.709 74.659 149.739L79.092 150.351C79.3518 150.381 79.5505 150.473 79.6575 150.61C79.7798 150.733 79.8257 150.901 79.7951 151.099C79.7645 151.283 79.6881 151.435 79.5353 151.542C79.3977 151.634 79.1837 151.665 78.9085 151.634Z" fill="#FEFEFE"/>
<path d="M82.5925 151.39L85.7567 156.386L85.8484 151.405C85.8484 151.084 85.9248 150.839 86.0624 150.687C86.2152 150.534 86.3987 150.457 86.628 150.457C86.8725 150.457 87.0713 150.549 87.2088 150.702C87.3464 150.87 87.4075 151.115 87.4075 151.435L87.27 158.006C87.2547 158.739 86.949 159.106 86.3375 159.09C86.1847 159.09 86.0471 159.06 85.9401 159.014C85.8178 158.968 85.6955 158.907 85.6038 158.8C85.4968 158.708 85.3898 158.601 85.3134 158.464C85.2217 158.342 85.1299 158.204 85.0382 158.067L81.9657 153.131L81.874 158.036C81.8587 158.357 81.7823 158.601 81.6294 158.754C81.4766 158.922 81.2932 158.999 81.0486 158.999C80.8193 158.983 80.6206 158.907 80.483 158.739C80.3454 158.571 80.269 158.326 80.2843 158.006L80.4066 151.558C80.4066 151.283 80.4371 151.069 80.5136 150.916C80.59 150.748 80.7123 150.61 80.8804 150.503C81.0486 150.396 81.232 150.351 81.4154 150.351C81.5683 150.366 81.7059 150.381 81.8129 150.442C81.9199 150.488 82.0116 150.549 82.088 150.641C82.1797 150.733 82.2562 150.839 82.3326 150.977C82.4243 151.099 82.5007 151.252 82.5925 151.39Z" fill="#FEFEFE"/>
<path d="M93.9346 151.374L92.085 151.542L92.62 157.593C92.6506 157.944 92.5895 158.204 92.4519 158.388C92.3143 158.571 92.1156 158.678 91.871 158.693C91.6265 158.724 91.4125 158.647 91.2443 158.495C91.0609 158.342 90.9692 158.082 90.9386 157.746L90.4036 151.695L88.554 151.848C88.2635 151.878 88.0495 151.833 87.8967 151.71C87.7438 151.603 87.6674 151.435 87.6368 151.237C87.6215 151.023 87.6827 150.839 87.8202 150.702C87.9578 150.564 88.1565 150.488 88.4317 150.458L93.7971 149.984C94.1028 149.953 94.3168 149.999 94.4696 150.121C94.6225 150.244 94.7142 150.396 94.7295 150.61C94.7448 150.809 94.6989 150.992 94.5614 151.13C94.4238 151.267 94.2098 151.344 93.9346 151.374Z" fill="#FEFEFE"/>
<path d="M96.3193 157.043L95.2645 150.534C95.2187 150.182 95.2492 149.923 95.3715 149.724C95.5091 149.541 95.6925 149.418 95.9371 149.388C96.1817 149.342 96.411 149.388 96.5944 149.541C96.7778 149.678 96.8848 149.923 96.946 150.259L97.9854 156.768C98.0466 157.119 98.0007 157.379 97.8784 157.578C97.7409 157.776 97.5574 157.883 97.2976 157.929C97.0683 157.96 96.8543 157.914 96.6708 157.761C96.4874 157.624 96.3651 157.379 96.3193 157.043Z" fill="#FEFEFE"/>
<path d="M106.255 152.948C106.316 153.208 106.316 153.513 106.27 153.834C106.225 154.17 106.102 154.522 105.904 154.873C105.705 155.24 105.414 155.561 105.032 155.851C104.65 156.141 104.176 156.355 103.611 156.493C103.183 156.6 102.785 156.661 102.418 156.676C102.051 156.676 101.7 156.63 101.364 156.539C101.043 156.432 100.722 156.279 100.401 156.065C100.125 155.851 99.8809 155.622 99.6363 155.347C99.407 155.072 99.2083 154.751 99.0402 154.415C98.8873 154.079 98.7497 153.712 98.6427 153.315C98.4746 152.658 98.4287 152.047 98.4746 151.481C98.5357 150.916 98.7039 150.412 98.9484 149.953C99.2083 149.495 99.5599 149.113 99.9879 148.792C100.416 148.486 100.89 148.257 101.44 148.12C102.097 147.952 102.709 147.936 103.29 148.074C103.871 148.196 104.344 148.425 104.711 148.731C105.093 149.052 105.323 149.388 105.399 149.724C105.46 149.923 105.43 150.091 105.338 150.274C105.231 150.458 105.093 150.564 104.91 150.61C104.696 150.671 104.528 150.656 104.39 150.58C104.268 150.519 104.1 150.366 103.916 150.167C103.595 149.816 103.274 149.571 102.923 149.449C102.587 149.327 102.204 149.312 101.776 149.434C101.104 149.602 100.63 149.999 100.355 150.61C100.095 151.221 100.08 152.001 100.324 152.948C100.477 153.575 100.706 154.079 100.981 154.445C101.272 154.827 101.593 155.072 101.975 155.194C102.357 155.316 102.755 155.316 103.198 155.209C103.672 155.087 104.039 154.873 104.299 154.552C104.574 154.247 104.727 153.834 104.788 153.33C104.788 153.101 104.834 152.918 104.91 152.749C104.971 152.581 105.124 152.474 105.353 152.413C105.552 152.367 105.735 152.398 105.904 152.505C106.087 152.597 106.194 152.749 106.255 152.948Z" fill="#FEFEFE"/>
<path d="M116.665 148.914C116.757 149.159 116.818 149.449 116.818 149.785C116.818 150.121 116.757 150.488 116.604 150.87C116.466 151.252 116.237 151.619 115.901 151.97C115.58 152.306 115.136 152.597 114.601 152.826C114.204 152.994 113.822 153.116 113.455 153.177C113.088 153.254 112.736 153.254 112.4 153.208C112.049 153.162 111.712 153.055 111.376 152.887C111.07 152.734 110.78 152.535 110.505 152.306C110.229 152.062 109.985 151.787 109.771 151.481C109.557 151.176 109.358 150.839 109.205 150.457C108.93 149.831 108.793 149.235 108.762 148.67C108.731 148.104 108.808 147.585 108.991 147.081C109.175 146.592 109.465 146.164 109.832 145.782C110.199 145.415 110.642 145.11 111.162 144.896C111.773 144.636 112.385 144.514 112.981 144.56C113.577 144.59 114.082 144.743 114.494 145.003C114.907 145.247 115.182 145.537 115.32 145.874C115.396 146.042 115.411 146.225 115.335 146.424C115.274 146.607 115.152 146.745 114.968 146.821C114.769 146.897 114.601 146.928 114.464 146.867C114.326 146.821 114.143 146.699 113.913 146.531C113.547 146.225 113.195 146.057 112.843 145.981C112.477 145.904 112.11 145.965 111.697 146.133C111.055 146.408 110.658 146.867 110.489 147.509C110.306 148.166 110.413 148.93 110.795 149.831C111.055 150.427 111.361 150.885 111.697 151.206C112.033 151.527 112.4 151.726 112.782 151.787C113.18 151.863 113.577 151.802 113.99 151.619C114.448 151.435 114.769 151.16 114.983 150.809C115.197 150.442 115.289 150.03 115.274 149.525C115.243 149.296 115.259 149.098 115.304 148.93C115.35 148.761 115.473 148.624 115.687 148.532C115.87 148.456 116.069 148.456 116.252 148.517C116.436 148.593 116.573 148.731 116.665 148.914Z" fill="#FEFEFE"/>
<path d="M118.071 141.595C118.82 141.168 119.554 140.938 120.272 140.938C120.991 140.938 121.648 141.137 122.244 141.534C122.84 141.932 123.36 142.512 123.803 143.276C124.124 143.841 124.354 144.392 124.461 144.926C124.583 145.476 124.583 146.011 124.476 146.515C124.369 147.035 124.14 147.509 123.803 147.936C123.467 148.364 123.009 148.746 122.443 149.082C121.877 149.403 121.312 149.602 120.762 149.678C120.211 149.755 119.676 149.709 119.187 149.556C118.698 149.388 118.239 149.128 117.811 148.746C117.399 148.364 117.032 147.906 116.711 147.356C116.39 146.806 116.176 146.24 116.069 145.69C115.962 145.125 115.962 144.605 116.069 144.101C116.191 143.597 116.405 143.139 116.741 142.711C117.078 142.283 117.521 141.916 118.071 141.595ZM122.321 144.116C122.015 143.597 121.663 143.184 121.266 142.894C120.869 142.604 120.456 142.451 120.013 142.42C119.585 142.405 119.157 142.527 118.744 142.757C118.453 142.925 118.224 143.139 118.025 143.398C117.842 143.658 117.72 143.933 117.674 144.254C117.613 144.56 117.628 144.911 117.704 145.308C117.796 145.69 117.949 146.088 118.193 146.5C118.438 146.913 118.698 147.264 119.004 147.539C119.294 147.799 119.6 147.997 119.921 148.104C120.227 148.211 120.548 148.257 120.853 148.227C121.159 148.196 121.465 148.089 121.755 147.921C122.137 147.707 122.428 147.402 122.626 147.035C122.84 146.668 122.917 146.24 122.871 145.736C122.84 145.232 122.657 144.697 122.321 144.116Z" fill="#FEFEFE"/>
<path d="M126.417 137.164L123.803 139.242L125.133 140.923L127.319 139.181C127.518 139.013 127.717 138.937 127.885 138.952C128.053 138.967 128.206 139.044 128.328 139.196C128.435 139.349 128.481 139.502 128.45 139.67C128.42 139.838 128.313 140.006 128.114 140.159L125.928 141.901L127.656 144.071C127.885 144.346 127.977 144.59 127.961 144.819C127.946 145.049 127.839 145.247 127.64 145.4C127.457 145.553 127.243 145.614 127.014 145.583C126.784 145.537 126.555 145.385 126.341 145.125L122.321 140.098C122.168 139.899 122.076 139.716 122.03 139.563C122 139.395 122.015 139.227 122.091 139.09C122.168 138.937 122.29 138.784 122.489 138.631L125.592 136.141C125.806 135.973 126.005 135.896 126.188 135.911C126.356 135.927 126.509 136.003 126.631 136.156C126.754 136.309 126.8 136.477 126.769 136.645C126.738 136.813 126.616 136.996 126.417 137.164Z" fill="#FEFEFE"/>
<path d="M131.951 132.779L129.337 134.857L130.682 136.538L132.868 134.796C133.067 134.643 133.25 134.567 133.418 134.567C133.602 134.582 133.739 134.658 133.862 134.811C133.984 134.964 134.03 135.117 133.999 135.3C133.969 135.468 133.862 135.621 133.648 135.789L131.477 137.531L133.204 139.685C133.418 139.96 133.525 140.22 133.51 140.449C133.495 140.679 133.388 140.862 133.189 141.015C132.99 141.183 132.792 141.229 132.547 141.198C132.333 141.168 132.104 141.015 131.89 140.74L127.87 135.713C127.717 135.529 127.625 135.346 127.579 135.178C127.533 135.01 127.564 134.857 127.64 134.704C127.701 134.551 127.839 134.399 128.022 134.261L131.141 131.771C131.355 131.603 131.553 131.526 131.722 131.526C131.905 131.541 132.043 131.618 132.165 131.771C132.287 131.923 132.333 132.091 132.318 132.26C132.287 132.443 132.165 132.611 131.951 132.779Z" fill="#FEFEFE"/>
<path d="M136.093 127.981L133.586 130.854L135.146 132.214L137.454 129.57C137.622 129.372 137.79 129.265 137.974 129.234C138.142 129.219 138.295 129.28 138.447 129.402C138.585 129.525 138.661 129.677 138.661 129.845C138.677 130.029 138.6 130.212 138.417 130.411L136.109 133.054L137.897 134.628L140.496 131.648C140.679 131.45 140.847 131.328 141.031 131.312C141.214 131.297 141.382 131.343 141.535 131.48C141.688 131.618 141.764 131.771 141.764 131.954C141.78 132.137 141.688 132.321 141.505 132.535L138.478 136.003C138.233 136.278 138.004 136.416 137.775 136.431C137.546 136.446 137.286 136.339 137.011 136.095L132.272 131.954C132.088 131.801 131.966 131.633 131.905 131.48C131.829 131.328 131.813 131.175 131.874 131.007C131.92 130.839 132.012 130.671 132.18 130.487L135.115 127.126C135.299 126.927 135.482 126.805 135.65 126.79C135.834 126.774 135.986 126.82 136.139 126.942C136.277 127.08 136.353 127.233 136.369 127.401C136.369 127.584 136.277 127.767 136.093 127.981Z" fill="#FEFEFE"/>
<path d="M140.159 122.588L138.096 125.796L139.838 126.927L141.734 123.963C141.871 123.749 142.024 123.611 142.192 123.566C142.361 123.52 142.529 123.55 142.682 123.657C142.85 123.764 142.942 123.902 142.972 124.07C143.003 124.238 142.957 124.436 142.804 124.65L140.908 127.615L142.911 128.898L145.051 125.582C145.189 125.353 145.357 125.216 145.525 125.17C145.708 125.124 145.876 125.155 146.045 125.277C146.213 125.384 146.32 125.521 146.35 125.705C146.381 125.888 146.32 126.087 146.182 126.316L143.675 130.182C143.477 130.487 143.263 130.671 143.049 130.716C142.819 130.762 142.559 130.686 142.238 130.487L136.965 127.08C136.751 126.942 136.613 126.805 136.521 126.667C136.43 126.53 136.399 126.362 136.414 126.194C136.445 126.026 136.521 125.842 136.644 125.644L139.074 121.885C139.212 121.656 139.38 121.518 139.548 121.472C139.716 121.426 139.884 121.457 140.052 121.564C140.221 121.671 140.312 121.808 140.343 121.992C140.373 122.16 140.312 122.374 140.159 122.588Z" fill="#FEFEFE"/>
<path d="M157.494 87.5211C158.904 87.5211 160.047 86.3787 160.047 84.9694C160.047 83.5602 158.904 82.4177 157.494 82.4177C156.084 82.4177 154.941 83.5602 154.941 84.9694C154.941 86.3787 156.084 87.5211 157.494 87.5211Z" fill="#FEFEFE" stroke="#FEFEFE" stroke-width="0.199997"/>
<path d="M12.6591 87.5517C14.0689 87.5517 15.2118 86.4092 15.2118 85C15.2118 83.5907 14.0689 82.4483 12.6591 82.4483C11.2492 82.4483 10.1063 83.5907 10.1063 85C10.1063 86.4092 11.2492 87.5517 12.6591 87.5517Z" fill="#FEFEFE" stroke="#FEFEFE" stroke-width="0.199997"/>
</g>
<defs>
<clipPath id="clip0_1505_322">
<rect width="170" height="170" fill="white"/>
</clipPath>
</defs>
</svg>
