<svg width="360" height="262" viewBox="0 0 360 262" fill="none" xmlns="http://www.w3.org/2000/svg">
<path d="M361 144.25C361 144.505 360.794 144.711 360.539 144.711H-1V143.79H360.539C360.794 143.79 361 143.996 361 144.25V144.25Z" fill="#E6E6E6"/>
<path d="M117.876 32.3314C125.422 32.3314 131.539 26.2123 131.539 18.6641C131.539 11.1159 125.422 4.99683 117.876 4.99683C110.33 4.99683 104.213 11.1159 104.213 18.6641C104.213 26.2123 110.33 32.3314 117.876 32.3314Z" fill="#FFB6B6"/>
<path d="M125.116 35.2153L107.132 40.3552L104.563 46.1376L98.7823 73.7648V117.454C98.7823 117.454 91.7171 132.874 95.5709 146.366C99.6901 160.789 114.197 143.766 125.116 145.709C136.035 147.651 153.377 149.579 153.377 149.579L143.1 102.677L140.531 45.4952L125.116 35.2153H125.116Z" fill="#E6E6E6"/>
<path d="M121.722 23.1398L118.944 21.7505C118.944 21.7505 118.25 15.4984 116.861 14.1091C115.472 12.7197 115.472 12.0251 115.472 12.0251L117.556 9.24637C117.556 9.24637 107.139 14.8038 105.055 11.3304C102.972 7.85702 105.75 6.46768 105.75 6.46768L102.278 3.68899C102.278 3.68899 106.444 6.46768 107.139 4.38366C107.833 2.29964 112 0.885676 112 0.885676C112 0.885676 121.099 2.94508 120.369 0.885676C119.639 -1.17373 122.417 0.910293 123.111 1.60496C123.806 2.29964 130.056 9.24637 130.75 8.55169C131.445 7.85702 134.917 9.94104 134.222 10.6357C133.528 11.3304 133.528 12.0251 134.222 12.7197C134.917 13.4144 139.084 21.0558 135.611 23.8345C132.139 26.6132 127.278 30.0866 127.972 32.8653C128.667 35.6439 127.972 23.8345 121.722 23.1398L121.722 23.1398Z" fill="#2F2E41"/>
<path d="M54.3706 57.5504C50.8638 54.5265 49.581 50.2653 51.5052 48.0332C53.4295 45.801 57.8313 46.4434 61.339 49.4689C62.7567 50.6582 63.8691 52.1699 64.583 53.8774L79.2797 66.8777L73.034 73.6466L59.2088 60.1119C57.4147 59.6569 55.7556 58.7785 54.3706 57.5504L54.3706 57.5504Z" fill="#FFB6B6"/>
<path d="M104.717 46.3586L114.398 45.4783L122.888 85.9812C124.505 93.6989 119.448 101.234 111.694 102.657L104.717 103.939L60.2451 64.7699L66.7424 53.9351L99.5384 74.5143L104.717 46.3586V46.3586Z" fill="#E6E6E6"/>
<path d="M83.1044 226.48C83.1044 226.48 75.426 240.745 75.9745 240.196C76.523 239.647 85.8466 242.939 85.8466 242.939L91.3311 228.675L83.1044 226.48Z" fill="#FFB6B6"/>
<path d="M71.7713 126.632C71.7713 126.632 67.8408 142.349 68.2374 141.682C68.6339 141.015 78.4808 141.909 78.4808 141.909L80.285 126.733L71.7714 126.632H71.7713Z" fill="#FFB6B6"/>
<path d="M140.143 123.99C122.791 126.428 107.118 124.302 94.3476 114.286C94.3476 114.286 85.0239 145.558 102.026 148.849C119.028 152.141 137.95 146.484 140.143 140.997C142.337 135.511 140.143 123.99 140.143 123.99Z" fill="#2F2E41"/>
<path d="M107.785 133.865L88.8631 178.475L80.0879 230.046L91.6054 232.789L112.207 185.333L140.143 139.9L107.785 133.865Z" fill="#2F2E41"/>
<path d="M105.317 121.144C105.317 121.144 100.929 87.1289 92.7023 84.9344C88.6917 83.8645 84.9418 83.9682 82.1516 84.3554C79.3393 84.7457 77.0974 86.895 76.6057 89.6922L69.1297 132.219H79.7014L83.1044 120.698L92.1538 136.505L105.317 121.144V121.144Z" fill="#2F2E41"/>
<path d="M78.4425 137.603L67.9896 136.505L66.3766 142.54C66.3766 142.54 49.3746 157.902 58.1498 158.999C66.9251 160.096 75.1518 154.061 75.1518 154.061L87.2232 147.134C87.2232 147.134 82.5559 134.688 79.2652 134.688C75.9745 134.688 78.4425 137.603 78.4425 137.603V137.603Z" fill="#2F2E41"/>
<path d="M83.927 240.47L73.4741 239.373L71.8611 245.408C71.8611 245.408 54.8591 260.769 63.6343 261.867C72.4096 262.964 80.6363 256.929 80.6363 256.929L92.7077 250.002C92.7077 250.002 91.8796 237.007 88.5889 237.007C85.2982 237.007 83.927 240.47 83.927 240.47Z" fill="#2F2E41"/>
<path d="M136.854 157.417C135.594 161.741 132.342 164.595 129.591 163.792C126.84 162.989 125.632 158.834 126.894 154.509C127.374 152.774 128.263 151.179 129.485 149.859L135.056 131.605L143.564 134.403L137.168 152.101C137.489 153.872 137.382 155.695 136.854 157.417V157.417Z" fill="#FFB6B6"/>
<path d="M142.742 45.5746L138.306 44.3231V44.3231C134.124 52.6482 132.325 61.9686 133.109 71.2529L135.299 97.1593L128.075 142.694L142.234 146.358L153.391 89.2142L142.742 45.5746V45.5746Z" fill="#E6E6E6"/>
<path d="M56.3831 116.767C56.1888 116.173 54.7165 116.435 54.5752 115.903C54.4343 115.373 55.8471 114.928 56.9306 113.435C57.1261 113.166 58.3574 111.468 57.8851 110.755C56.99 109.402 50.7618 112.772 49.2668 110.88C48.9387 110.465 48.8037 109.753 47.8263 108.427C47.4374 107.9 47.188 107.645 46.8899 107.652C46.467 107.663 46.3157 108.192 45.6509 109.151C44.6541 110.589 44.2943 110.408 43.6376 111.586C43.1501 112.461 43.0923 113.02 42.7408 113.053C42.2433 113.099 42.0378 112.01 41.4299 111.968C40.8096 111.925 40.1889 113.001 39.8812 113.841C39.3037 115.419 39.6613 116.624 39.7406 117.826C39.8267 119.132 39.6244 121.043 38.2061 123.497L24.8285 144.817C27.7015 140.471 35.8568 128.619 39.1425 124.271C40.0911 123.016 41.1104 121.756 42.6793 121.519C44.1897 121.291 46.0276 122.038 48.5929 121.995C48.8925 121.99 49.7263 121.965 49.9291 121.523C50.0968 121.157 49.6804 120.839 49.8319 120.496C50.035 120.035 50.949 120.233 52.1945 119.927C53.0728 119.711 53.6694 119.354 54.1825 119.048C54.3372 118.955 56.6417 117.559 56.3831 116.767H56.3831L56.3831 116.767Z" fill="#F2F2F2"/>
<path d="M21.3446 121.745C20.9968 121.669 20.7005 122.467 20.3987 122.383C20.098 122.3 20.2877 121.478 19.8676 120.515C19.7918 120.341 19.3144 119.247 18.8278 119.273C17.9057 119.322 17.7621 123.352 16.4029 123.541C16.1046 123.582 15.7161 123.443 14.7835 123.54C14.4125 123.579 14.2155 123.628 14.1332 123.776C14.0165 123.987 14.2325 124.214 14.5111 124.817C14.9289 125.721 14.7365 125.846 15.125 126.508C15.4135 127 15.671 127.189 15.5857 127.371C15.465 127.629 14.8715 127.416 14.6754 127.702C14.4753 127.994 14.824 128.609 15.1477 129.003C15.755 129.742 16.4497 129.914 17.0621 130.222C17.7276 130.556 18.6071 131.207 19.4016 132.611L26.0027 145.331C24.6991 142.666 21.2369 135.242 20.0518 132.375C19.7097 131.547 19.3855 130.683 19.7219 129.844C20.0457 129.037 20.9428 128.35 21.6616 127.078C21.7456 126.93 21.974 126.513 21.8156 126.286C21.6847 126.098 21.4086 126.211 21.2838 126.037C21.1163 125.805 21.477 125.413 21.6862 124.713C21.8337 124.22 21.831 123.824 21.8286 123.484C21.8278 123.381 21.8076 121.847 21.3446 121.745V121.745L21.3446 121.745Z" fill="#F2F2F2"/>
<path d="M27.9302 124.849L28.1377 122.933L28.265 122.812C28.8537 122.256 29.2221 121.666 29.3602 121.059C29.3822 120.962 29.3993 120.865 29.4167 120.765C29.4856 120.371 29.5711 119.882 29.9498 119.373C30.1617 119.089 30.7224 118.449 31.3006 118.673C31.4566 118.731 31.5619 118.832 31.6351 118.94C31.6535 118.921 31.6723 118.902 31.6924 118.882C31.9422 118.639 32.1169 118.55 32.2852 118.465C32.4145 118.399 32.5481 118.331 32.7741 118.15C32.8732 118.071 32.9526 118 33.0195 117.94C33.2224 117.758 33.4819 117.546 33.8373 117.63C34.2142 117.733 34.3434 118.093 34.4291 118.331C34.5821 118.756 34.6293 119.048 34.6605 119.241C34.6717 119.312 34.6847 119.392 34.6946 119.417C34.7771 119.625 35.8124 119.679 36.2019 119.702C37.0776 119.749 37.8353 119.79 38.0175 120.39C38.1482 120.819 37.8757 121.287 37.1842 121.818C36.9688 121.983 36.7535 122.097 36.5658 122.182C36.6812 122.291 36.7732 122.44 36.7788 122.642C36.7915 123.121 36.3008 123.488 35.3205 123.735C35.0769 123.798 34.7493 123.88 34.3205 123.859C34.1186 123.849 33.9417 123.818 33.7909 123.789C33.7684 123.875 33.7272 123.965 33.6528 124.049C33.4347 124.299 33.0823 124.363 32.604 124.222C32.076 124.075 31.6588 123.875 31.2907 123.699C30.9691 123.545 30.6919 123.414 30.4592 123.378C30.0265 123.318 29.623 123.585 29.1402 123.941L27.9302 124.849H27.9302L27.9302 124.849Z" fill="#F2F2F2"/>
<path d="M31.3834 113.934L29.4777 114.219L29.3291 114.127C28.6415 113.698 27.9778 113.491 27.3558 113.512C27.257 113.515 27.1583 113.523 27.0577 113.531C26.6593 113.565 26.1639 113.606 25.5759 113.369C25.2481 113.236 24.4864 112.856 24.5561 112.239C24.5731 112.074 24.6443 111.946 24.7295 111.848C24.7068 111.835 24.6841 111.821 24.6595 111.807C24.3614 111.627 24.231 111.48 24.1055 111.339C24.009 111.231 23.9095 111.119 23.6774 110.946C23.5756 110.87 23.4864 110.812 23.4115 110.762C23.1848 110.612 22.9138 110.414 22.9049 110.049C22.909 109.658 23.2239 109.442 23.4323 109.299C23.804 109.043 24.0744 108.923 24.2538 108.844C24.3193 108.815 24.393 108.783 24.4156 108.766C24.5957 108.634 24.3851 107.618 24.308 107.236C24.1319 106.376 23.9795 105.633 24.5132 105.304C24.895 105.069 25.4166 105.214 26.1054 105.749C26.3197 105.915 26.4846 106.095 26.6145 106.254C26.6908 106.115 26.811 105.989 27.0051 105.932C27.4646 105.798 27.9441 106.18 28.4321 107.066C28.5541 107.285 28.7168 107.582 28.8054 108.002C28.847 108.2 28.8619 108.379 28.8722 108.532C28.9611 108.532 29.0579 108.549 29.1588 108.6C29.4557 108.747 29.6065 109.072 29.5917 109.571C29.5833 110.119 29.4955 110.573 29.4188 110.974C29.3522 111.324 29.2958 111.626 29.3202 111.86C29.3714 112.294 29.7322 112.617 30.1986 112.994L31.3835 113.934H31.3834L31.3834 113.934Z" fill="#F2F2F2"/>
<path d="M31.6403 108.209L31.8477 106.293L31.975 106.173C32.5638 105.616 32.9321 105.026 33.0703 104.42C33.0923 104.323 33.1093 104.225 33.1267 104.126C33.1956 103.732 33.2812 103.242 33.6598 102.733C33.8718 102.45 34.4324 101.809 35.0106 102.033C35.1667 102.092 35.272 102.193 35.3452 102.3C35.3635 102.282 35.3824 102.263 35.4025 102.243C35.6522 102 35.827 101.911 35.9953 101.825C36.1246 101.76 36.2581 101.692 36.4841 101.511C36.5833 101.432 36.6626 101.36 36.7295 101.3C36.9324 101.119 37.1919 100.907 37.5474 100.991C37.9242 101.094 38.0534 101.454 38.1391 101.692C38.2922 102.116 38.3393 102.408 38.3705 102.602C38.3817 102.673 38.3948 102.752 38.4046 102.778C38.4871 102.986 39.5224 103.04 39.912 103.062C40.7876 103.11 41.5453 103.151 41.7275 103.751C41.8583 104.18 41.5858 104.648 40.8943 105.179C40.6789 105.344 40.4635 105.458 40.2759 105.543C40.3913 105.652 40.4832 105.801 40.4889 106.003C40.5015 106.481 40.0109 106.848 39.0306 107.096C38.787 107.158 38.4593 107.24 38.0306 107.22C37.8286 107.21 37.6517 107.179 37.5009 107.15C37.4784 107.236 37.4372 107.325 37.3629 107.41C37.1447 107.66 36.7923 107.723 36.3141 107.583C35.786 107.435 35.3689 107.235 35.0007 107.059C34.6792 106.906 34.4019 106.775 34.1693 106.739C33.7366 106.679 33.3331 106.946 32.8502 107.302L31.6403 108.209H31.6403L31.6403 108.209Z" fill="#F2F2F2"/>
<path d="M25.461 144.926L25.1241 144.593L25.1301 144.12L25.1241 144.593L24.6558 144.544C24.658 144.5 24.6549 144.397 24.6515 144.236C24.6335 143.354 24.5775 140.671 24.951 136.549C25.2118 133.671 25.6476 130.75 26.2463 127.866C26.8459 124.976 27.4683 122.827 27.9682 121.099C28.3454 119.796 28.7262 118.56 29.0979 117.356C30.0899 114.139 31.0265 111.1 31.6065 107.634C31.7364 106.861 32.006 105.25 31.454 103.349C31.1338 102.247 30.5855 101.209 29.8239 100.266L30.5611 99.6701C31.4015 100.712 32.0078 101.862 32.3635 103.086C32.9754 105.193 32.6817 106.948 32.5406 107.792C31.9502 111.319 31.0043 114.386 30.0026 117.634C29.6328 118.834 29.2532 120.065 28.8776 121.362C28.3822 123.074 27.7655 125.205 27.1736 128.057C26.5817 130.908 26.1515 133.793 25.8936 136.634C25.5251 140.705 25.5804 143.348 25.5985 144.216C25.6079 144.68 25.6099 144.777 25.461 144.926V144.926L25.461 144.926Z" fill="#F2F2F2"/>
<path d="M27.8016 101.356C27.7637 101.348 27.7255 101.338 27.6873 101.327C26.9098 101.109 26.2862 100.475 25.8332 99.4435C25.6211 98.9584 25.5711 98.4479 25.4713 97.4296C25.4556 97.2726 25.3864 96.4782 25.4715 95.4254C25.5268 94.7374 25.6008 94.4611 25.7879 94.2441C25.9958 94.0024 26.2758 93.864 26.5717 93.7945C26.5797 93.7034 26.6095 93.6143 26.6686 93.5299C26.912 93.1796 27.3195 93.3236 27.5406 93.3985C27.652 93.4385 27.7908 93.4893 27.9469 93.5157C28.1923 93.5581 28.3388 93.5149 28.5606 93.4507C28.7728 93.3891 29.0366 93.3124 29.4014 93.3189C30.121 93.3288 30.6538 93.6524 30.8294 93.7589C31.7546 94.315 32.0741 95.2022 32.4437 96.2294C32.5172 96.4354 32.761 97.1796 32.8177 98.1381C32.8587 98.8295 32.7681 99.1125 32.6643 99.3149C32.4521 99.731 32.1273 99.9239 31.3211 100.33C30.4788 100.755 30.0562 100.968 29.7098 101.077C28.9035 101.33 28.3972 101.489 27.8016 101.356V101.356V101.356Z" fill="#F2F2F2"/>
<path d="M244.011 21.146C244.011 21.146 249.242 24.2144 247.527 27.2488C245.811 30.2833 243.42 34.4166 245.042 35.7183C246.664 37.02 249.343 42.7594 249.343 42.7594C249.343 42.7594 260.776 41.1621 259.702 50.0457C258.629 58.9294 253.258 60.1405 257.862 64.0487C262.465 67.9568 253.077 72.6309 253.077 72.6309C253.077 72.6309 246.596 70.6106 245.118 64.3979C243.639 58.1853 246.436 69.1483 245.498 69.9344C244.56 70.7205 240.918 75.9018 238.341 69.0129C235.764 62.124 238.315 59.453 234.91 55.3873C231.505 51.3215 229.19 44.7453 229.291 43.5958C229.393 42.4462 225.396 31.9565 231.548 27.8656C237.699 23.7746 244.011 21.146 244.011 21.146V21.146Z" fill="#2F2E41"/>
<path d="M295.531 117.534C298.568 120.048 302.326 120.519 303.925 118.585C305.524 116.652 304.359 113.047 301.321 110.532C300.121 109.511 298.694 108.792 297.159 108.436L284.158 97.9462L279.367 104.154L292.693 113.836C293.33 115.278 294.303 116.546 295.531 117.534V117.534Z" fill="#FFB6B6"/>
<path d="M256.565 60.3258C256.565 60.3258 246.362 53.5002 243.021 56.8471C239.68 60.194 240.478 68.5537 240.478 68.5537L267.234 99.7465L288.451 113.237L294.14 104.326L276.303 88.4041L256.565 60.3258V60.3258Z" fill="#3F3D56"/>
<path d="M241.609 45.5404L245.311 58.7031H224.992L231.683 42.4846L241.609 45.5404Z" fill="#FFB6B6"/>
<path opacity="0.1" d="M241.609 45.5404L245.311 58.7031H224.992L231.683 42.4846L241.609 45.5404Z" fill="black"/>
<path d="M197.298 142.725C197.036 146.659 198.853 149.984 201.356 150.15C203.859 150.317 206.1 147.263 206.362 143.327C206.488 141.756 206.236 140.178 205.628 138.725L206.529 122.04L198.693 121.784L198.637 138.259C197.84 139.619 197.381 141.151 197.298 142.725V142.725Z" fill="#FFB6B6"/>
<path d="M220.893 77.6479C220.893 77.6479 220.46 65.3772 215.792 64.624C211.124 63.8707 204.812 69.4078 204.812 69.4078L195.17 109.362L196.641 134.467L207.194 133.871L209.671 110.086L220.893 77.6479V77.6479Z" fill="#3F3D56"/>
<path d="M266.152 224.286C266.152 224.286 273.831 238.55 273.282 238.001C272.734 237.453 263.41 240.744 263.41 240.744L257.925 226.48L266.152 224.286Z" fill="#FFB6B6"/>
<path d="M277.485 124.438C277.485 124.438 281.416 140.154 281.019 139.487C280.623 138.821 270.776 139.714 270.776 139.714L268.972 124.538L277.485 124.438V124.438Z" fill="#FFB6B6"/>
<path d="M246.956 54.3141H227.787L206.919 68.5784L200.887 118.503L204.177 128.379L210.21 139.9C210.21 139.9 204.177 114.663 218.985 124.538C233.794 134.414 234.891 136.06 234.891 136.06L254.635 126.184L262.039 85.3115L256.554 62.8178L246.956 54.3141Z" fill="#3F3D56"/>
<path d="M209.113 121.795C226.465 124.234 242.138 122.108 254.909 112.091C254.909 112.091 264.233 143.363 247.231 146.655C230.229 149.947 211.307 144.289 209.113 138.803C206.919 133.316 209.113 121.795 209.113 121.795Z" fill="#2F2E41"/>
<path d="M241.472 131.671L260.393 176.281L269.169 227.852L257.651 230.595L237.05 183.139L209.113 137.705L241.472 131.671Z" fill="#2F2E41"/>
<path d="M243.94 118.949C243.94 118.949 248.328 84.9344 256.554 82.7399C260.565 81.67 264.315 81.7737 267.105 82.1609C269.917 82.5512 272.159 84.7005 272.651 87.4977L280.127 130.025H269.555L266.152 118.503L257.103 134.311L243.94 118.949V118.949Z" fill="#2F2E41"/>
<path d="M270.814 135.408L281.267 134.311L282.88 140.346C282.88 140.346 299.882 155.707 291.107 156.805C282.332 157.902 274.105 151.867 274.105 151.867L262.033 144.94C262.033 144.94 266.701 132.493 269.991 132.493C273.282 132.493 270.814 135.408 270.814 135.408V135.408Z" fill="#2F2E41"/>
<path d="M265.33 238.276L275.783 237.178L277.395 243.213C277.395 243.213 294.398 258.575 285.622 259.672C276.847 260.769 268.62 254.734 268.62 254.734L256.549 247.808C256.549 247.808 257.377 234.812 260.668 234.812C263.958 234.812 265.33 238.276 265.33 238.276Z" fill="#2F2E41"/>
<path d="M236.782 48.4007C243.54 48.4007 249.018 42.9206 249.018 36.1605C249.018 29.4004 243.54 23.9203 236.782 23.9203C230.024 23.9203 224.545 29.4004 224.545 36.1605C224.545 42.9206 230.024 48.4007 236.782 48.4007Z" fill="#FFB6B6"/>
<path d="M241.472 22.4923C241.472 22.4923 243.512 28.2044 240.249 29.4284C236.986 30.6524 232.499 32.2844 232.907 34.3245C233.315 36.3645 231.683 42.4846 231.683 42.4846C231.683 42.4846 241.472 48.6047 234.946 54.7248C228.42 60.8449 223.526 58.323 224.545 64.2761C225.565 70.2291 215.368 67.7811 215.368 67.7811C215.368 67.7811 211.697 62.069 214.552 56.3569C217.408 50.6448 212.513 60.8449 211.289 60.8449C210.066 60.8449 203.948 62.477 206.395 55.5409C208.842 48.6047 212.513 48.1967 212.513 42.8926C212.513 37.5885 214.96 31.0604 215.776 30.2444C216.592 29.4284 220.263 18.8202 227.604 19.6362C234.946 20.4522 241.472 22.4923 241.472 22.4923V22.4923Z" fill="#2F2E41"/>
<path d="M134.524 224.286C134.524 224.286 126.846 238.55 127.394 238.001C127.942 237.453 137.266 240.744 137.266 240.744L142.751 226.48L134.524 224.286V224.286Z" fill="#A0616A"/>
<path d="M191.563 121.795C174.211 124.234 158.538 122.108 145.767 112.091C145.767 112.091 136.443 143.363 153.445 146.655C170.447 149.947 189.369 144.289 191.563 138.803C193.757 133.316 191.563 121.795 191.563 121.795Z" fill="#2F2E41"/>
<path d="M159.204 131.671L140.283 176.281L131.507 227.852L143.025 230.595L163.626 183.139L191.563 137.705L159.204 131.671Z" fill="#2F2E41"/>
<path d="M135.347 238.276L124.894 237.178L123.281 243.213C123.281 243.213 106.279 258.575 115.054 259.672C123.829 260.769 132.056 254.734 132.056 254.734L144.127 247.808C144.127 247.808 143.299 234.812 140.008 234.812C136.718 234.812 135.347 238.276 135.347 238.276V238.276Z" fill="#2F2E41"/>
<path d="M151.861 216.781C151.861 216.781 148.957 232.719 149.309 232.028C149.662 231.337 159.546 231.591 159.546 231.591L160.364 216.329L151.861 216.781Z" fill="#A0616A"/>
<path d="M146.775 121.067L142.534 169.34L150.092 221.104L161.894 220.159L166.854 168.66L179.416 116.821L146.775 121.067Z" fill="#2F2E41"/>
<path d="M156.959 229.835L146.677 232.017L147.004 238.255C147.004 238.255 135.569 258.114 144.254 256.45C152.94 254.785 158.904 246.506 158.904 246.506L168.251 236.192C168.251 236.192 163.455 224.086 160.325 225.102C157.195 226.117 156.959 229.835 156.959 229.835V229.835Z" fill="#2F2E41"/>
<path d="M156.665 21.146C156.665 21.146 151.434 24.2144 153.15 27.2488C154.865 30.2833 157.256 34.4166 155.634 35.7183C154.012 37.02 151.333 42.7594 151.333 42.7594C151.333 42.7594 139.9 41.1621 140.974 50.0457C142.047 58.9294 147.418 60.1405 142.814 64.0487C138.211 67.9568 147.599 72.6309 147.599 72.6309C147.599 72.6309 154.08 70.6106 155.559 64.3979C157.037 58.1853 154.24 69.1483 155.178 69.9344C156.116 70.7205 159.758 75.9018 162.335 69.0129C164.913 62.124 162.361 59.453 165.766 55.3873C169.171 51.3215 171.486 44.7453 171.385 43.5958C171.283 42.4462 175.28 31.9565 169.128 27.8656C162.977 23.7746 156.665 21.146 156.665 21.146V21.146Z" fill="#2F2E41"/>
<path d="M159.067 45.5404L155.365 58.7031H175.684L168.993 42.4846L159.067 45.5404Z" fill="#A0616A"/>
<path opacity="0.1" d="M159.067 45.5404L155.365 58.7031H175.684L168.993 42.4846L159.067 45.5404Z" fill="black"/>
<path d="M203.378 142.725C203.64 146.659 201.823 149.984 199.32 150.15C196.817 150.317 194.576 147.263 194.314 143.327C194.188 141.756 194.44 140.178 195.048 138.725L194.147 122.04L201.983 121.784L202.04 138.259C202.836 139.619 203.295 141.151 203.378 142.725H203.378Z" fill="#A0616A"/>
<path d="M179.783 77.6479C179.783 77.6479 180.216 65.3772 184.884 64.624C189.552 63.8707 195.864 69.4078 195.864 69.4078L205.506 109.362L204.035 134.467L193.482 133.871L191.005 110.086L179.783 77.6479V77.6479Z" fill="#0075FF"/>
<path d="M153.72 54.3141H172.89L193.757 68.5784L199.79 118.503L196.499 128.379L190.466 139.9C190.466 139.9 196.499 114.663 181.691 124.538C181.543 124.637 181.396 124.735 181.251 124.832C171.718 131.201 159.14 130.547 150.317 123.227L143.299 117.406L147.138 98.2043L144.122 62.8178L153.72 54.3141V54.3141Z" fill="#0075FF"/>
<path d="M105.752 116.819C102.677 119.287 98.9119 119.7 97.3423 117.742C95.7727 115.785 96.993 112.198 100.069 109.73C101.284 108.727 102.722 108.03 104.262 107.697L117.421 97.4062L122.117 103.686L108.646 113.165C107.987 114.596 106.994 115.85 105.752 116.819V116.819Z" fill="#A0616A"/>
<path d="M145.582 60.2097C145.582 60.2097 155.888 53.54 159.178 56.9373C162.468 60.3347 161.543 68.6813 161.543 68.6813L134.316 99.4636L112.896 112.63L107.343 103.633L125.42 87.9847L145.582 60.2097V60.2097Z" fill="#0075FF"/>
<path d="M163.894 48.4007C170.652 48.4007 176.131 42.9206 176.131 36.1605C176.131 29.4004 170.652 23.9203 163.894 23.9203C157.137 23.9203 151.658 29.4004 151.658 36.1605C151.658 42.9206 157.137 48.4007 163.894 48.4007Z" fill="#A0616A"/>
<path d="M157.803 27.956C157.803 27.956 156 21.9451 159.005 21.9451C162.009 21.9451 174.027 22.5462 175.229 23.7483C176.431 24.9505 190.652 37.0158 182.239 46.6333C173.827 56.2507 182.239 60.8976 182.239 60.8976C182.239 60.8976 188.449 75.4421 182.44 76.6443C176.431 77.8465 151.783 70.9724 157.803 59.8137C164.336 47.7043 167.376 28.5914 157.803 27.956L157.803 27.956Z" fill="#2F2E41"/>
<path d="M358.031 117.316C357.837 116.721 356.365 116.983 356.224 116.451C356.083 115.921 357.495 115.477 358.579 113.984C358.774 113.714 360.006 112.017 359.533 111.303C358.638 109.95 352.41 113.32 350.915 111.429C350.587 111.014 350.452 110.302 349.475 108.976C349.086 108.448 348.836 108.193 348.538 108.201C348.115 108.212 347.964 108.741 347.299 109.7C346.302 111.137 345.943 110.957 345.286 112.135C344.798 113.01 344.741 113.568 344.389 113.601C343.892 113.648 343.686 112.559 343.078 112.517C342.458 112.474 341.837 113.55 341.53 114.39C340.952 115.967 341.31 117.173 341.389 118.375C341.475 119.68 341.273 121.592 339.855 124.045L326.477 145.366C329.35 141.019 337.505 129.167 340.791 124.82C341.739 123.565 342.759 122.305 344.328 122.067C345.838 121.839 347.676 122.587 350.241 122.543C350.541 122.538 351.375 122.513 351.577 122.071C351.745 121.706 351.329 121.388 351.48 121.045C351.683 120.584 352.597 120.781 353.843 120.475C354.721 120.26 355.318 119.903 355.831 119.596C355.986 119.504 358.29 118.108 358.031 117.316V117.316V117.316Z" fill="#F2F2F2"/>
<path d="M322.993 122.294C322.645 122.218 322.349 123.016 322.047 122.932C321.746 122.848 321.936 122.026 321.516 121.064C321.44 120.89 320.963 119.796 320.476 119.822C319.554 119.871 319.41 123.901 318.051 124.089C317.753 124.131 317.364 123.991 316.432 124.089C316.061 124.127 315.864 124.176 315.782 124.325C315.665 124.535 315.881 124.763 316.159 125.365C316.577 126.27 316.385 126.394 316.773 127.057C317.062 127.548 317.319 127.738 317.234 127.92C317.113 128.178 316.52 127.964 316.324 128.251C316.124 128.543 316.472 129.158 316.796 129.552C317.403 130.29 318.098 130.462 318.71 130.77C319.376 131.105 320.255 131.756 321.05 133.16L327.651 145.879C326.347 143.215 322.885 135.791 321.7 132.923C321.358 132.096 321.034 131.232 321.37 130.393C321.694 129.585 322.591 128.899 323.31 127.627C323.394 127.478 323.622 127.062 323.464 126.835C323.333 126.647 323.057 126.76 322.932 126.586C322.765 126.353 323.125 125.962 323.335 125.262C323.482 124.768 323.479 124.373 323.477 124.032C323.476 123.93 323.456 122.395 322.993 122.294V122.294V122.294Z" fill="#F2F2F2"/>
<path d="M329.579 125.397L329.786 123.481L329.913 123.361C330.502 122.804 330.87 122.214 331.009 121.608C331.031 121.511 331.048 121.413 331.065 121.314C331.134 120.92 331.219 120.43 331.598 119.921C331.81 119.638 332.371 118.997 332.949 119.221C333.105 119.28 333.21 119.381 333.283 119.488C333.302 119.47 333.321 119.451 333.341 119.431C333.591 119.188 333.765 119.099 333.934 119.013C334.063 118.948 334.196 118.88 334.422 118.699C334.522 118.62 334.601 118.548 334.668 118.488C334.871 118.307 335.13 118.095 335.486 118.179C335.863 118.282 335.992 118.642 336.077 118.88C336.23 119.304 336.278 119.596 336.309 119.79C336.32 119.861 336.333 119.94 336.343 119.966C336.425 120.174 337.461 120.228 337.85 120.25C338.726 120.298 339.484 120.339 339.666 120.939C339.797 121.368 339.524 121.836 338.833 122.367C338.617 122.532 338.402 122.646 338.214 122.731C338.33 122.84 338.422 122.988 338.427 123.191C338.44 123.669 337.949 124.036 336.969 124.284C336.725 124.346 336.398 124.428 335.969 124.408C335.767 124.398 335.59 124.367 335.439 124.338C335.417 124.424 335.376 124.513 335.301 124.598C335.083 124.848 334.731 124.911 334.252 124.77C333.724 124.623 333.307 124.423 332.939 124.247C332.617 124.094 332.34 123.963 332.108 123.927C331.675 123.867 331.271 124.134 330.789 124.49L329.579 125.397H329.579V125.397Z" fill="#F2F2F2"/>
<path d="M333.032 114.483L331.126 114.768L330.977 114.675C330.29 114.247 329.626 114.04 329.004 114.06C328.905 114.064 328.807 114.072 328.706 114.08C328.308 114.113 327.812 114.155 327.224 113.918C326.896 113.784 326.135 113.404 326.204 112.788C326.221 112.622 326.293 112.495 326.378 112.397C326.355 112.384 326.332 112.37 326.308 112.356C326.01 112.176 325.879 112.029 325.754 111.888C325.657 111.78 325.558 111.668 325.326 111.495C325.224 111.419 325.135 111.36 325.06 111.311C324.833 111.16 324.562 110.963 324.553 110.598C324.557 110.207 324.872 109.991 325.081 109.848C325.452 109.592 325.723 109.472 325.902 109.393C325.968 109.364 326.041 109.331 326.064 109.315C326.244 109.183 326.033 108.167 325.956 107.785C325.78 106.925 325.628 106.182 326.162 105.853C326.543 105.618 327.065 105.763 327.754 106.297C327.968 106.464 328.133 106.643 328.263 106.803C328.339 106.664 328.459 106.537 328.653 106.481C329.113 106.347 329.592 106.728 330.081 107.614C330.202 107.834 330.365 108.13 330.454 108.55C330.495 108.748 330.51 108.927 330.521 109.081C330.609 109.081 330.706 109.098 330.807 109.148C331.104 109.296 331.255 109.621 331.24 110.119C331.232 110.668 331.144 111.122 331.067 111.523C331.001 111.873 330.944 112.174 330.969 112.409C331.02 112.843 331.381 113.165 331.847 113.542L333.032 114.483H333.032V114.483Z" fill="#F2F2F2"/>
<path d="M333.289 108.758L333.496 106.842L333.623 106.721C334.212 106.165 334.58 105.575 334.719 104.968C334.741 104.872 334.758 104.774 334.775 104.675C334.844 104.281 334.93 103.791 335.308 103.282C335.52 102.999 336.081 102.358 336.659 102.582C336.815 102.64 336.92 102.742 336.994 102.849C337.012 102.83 337.031 102.812 337.051 102.791C337.301 102.549 337.475 102.46 337.644 102.374C337.773 102.308 337.906 102.24 338.132 102.06C338.232 101.98 338.311 101.909 338.378 101.849C338.581 101.668 338.84 101.456 339.196 101.54C339.573 101.643 339.702 102.002 339.787 102.24C339.941 102.665 339.988 102.957 340.019 103.15C340.03 103.221 340.043 103.301 340.053 103.327C340.135 103.535 341.171 103.588 341.56 103.611C342.436 103.658 343.194 103.7 343.376 104.299C343.507 104.728 343.234 105.196 342.543 105.727C342.327 105.892 342.112 106.006 341.924 106.092C342.04 106.201 342.132 106.349 342.137 106.551C342.15 107.03 341.659 107.397 340.679 107.645C340.435 107.707 340.108 107.789 339.679 107.768C339.477 107.758 339.3 107.727 339.149 107.698C339.127 107.784 339.086 107.874 339.011 107.959C338.793 108.208 338.441 108.272 337.962 108.131C337.434 107.984 337.017 107.784 336.649 107.608C336.328 107.455 336.05 107.324 335.818 107.288C335.385 107.227 334.981 107.494 334.499 107.85L333.289 108.758H333.289V108.758Z" fill="#F2F2F2"/>
<path d="M327.109 145.475L326.772 145.142L326.778 144.669L326.772 145.142L326.304 145.093C326.306 145.048 326.303 144.945 326.3 144.785C326.282 143.903 326.226 141.22 326.599 137.098C326.86 134.22 327.296 131.299 327.895 128.414C328.494 125.525 329.117 123.375 329.617 121.648C329.994 120.344 330.375 119.108 330.746 117.904C331.738 114.688 332.675 111.649 333.255 108.183C333.385 107.409 333.654 105.799 333.102 103.898C332.782 102.795 332.234 101.758 331.472 100.814L332.209 100.219C333.05 101.261 333.656 102.41 334.012 103.634C334.624 105.742 334.33 107.497 334.189 108.34C333.599 111.867 332.653 114.935 331.651 118.183C331.281 119.383 330.902 120.613 330.526 121.911C330.031 123.623 329.414 125.754 328.822 128.606C328.23 131.456 327.8 134.342 327.542 137.183C327.173 141.253 327.229 143.896 327.247 144.765C327.256 145.228 327.258 145.325 327.109 145.475V145.475V145.475Z" fill="#F2F2F2"/>
<path d="M329.45 101.905C329.412 101.897 329.374 101.887 329.336 101.876C328.558 101.658 327.935 101.024 327.482 99.9922C327.27 99.5071 327.219 98.9965 327.12 97.9782C327.104 97.8212 327.035 97.0268 327.12 95.974C327.175 95.286 327.249 95.0097 327.436 94.7928C327.644 94.5511 327.924 94.4126 328.22 94.3431C328.228 94.252 328.258 94.163 328.317 94.0786C328.56 93.7282 328.968 93.8722 329.189 93.9471C329.3 93.9871 329.439 94.038 329.595 94.0643C329.841 94.1067 329.987 94.0636 330.209 93.9994C330.421 93.9377 330.685 93.8611 331.05 93.8676C331.769 93.8775 332.302 94.201 332.478 94.3075C333.403 94.8636 333.722 95.7508 334.092 96.7781C334.166 96.984 334.409 97.7283 334.466 98.6867C334.507 99.3782 334.416 99.6612 334.313 99.8636C334.1 100.28 333.776 100.472 332.969 100.878C332.127 101.303 331.705 101.516 331.358 101.626C330.552 101.879 330.046 102.038 329.45 101.905V101.905V101.905Z" fill="#F2F2F2"/>
<path d="M90.679 112.3L90.0601 92.7727C90.0501 92.4557 90.1746 92.1471 90.4019 91.9261C90.6293 91.7049 90.9413 91.5889 91.258 91.6078L106.749 92.5372C107.062 92.5558 107.355 92.7055 107.554 92.9477C107.753 93.1899 107.843 93.5069 107.801 93.8175L105.181 113.226C105.102 113.813 104.577 114.242 103.986 114.203L91.7345 113.393C91.6102 113.384 91.4919 113.357 91.3822 113.312C90.9776 113.149 90.6935 112.76 90.679 112.3V112.3Z" fill="#0075FF"/>
<path d="M90.0794 90.9459C90.2961 90.9231 90.5864 90.895 90.9349 90.8658C90.8418 90.6922 90.8036 90.487 90.8435 90.2763L91.1201 88.8137C91.1919 88.434 91.4976 88.143 91.8805 88.0918C94.1613 87.7867 102.006 86.959 106.946 89.2008C107.255 89.3411 107.454 89.6491 107.464 89.9884L107.509 91.5489C107.515 91.7418 107.459 91.9207 107.36 92.0689C107.771 92.1794 108.18 92.2962 108.587 92.4235C108.841 92.5034 109.023 92.728 109.054 92.993L109.13 93.6577C109.179 94.0794 108.833 94.4421 108.41 94.4134L89.8908 93.1624C89.4694 93.1339 89.1758 92.7316 89.2773 92.3214L89.4906 91.4585C89.5594 91.1805 89.7947 90.9759 90.0794 90.9459V90.9459Z" fill="#3F3D56"/>
<path d="M44.0606 56.8885L43.4417 37.3613C43.4317 37.0444 43.5562 36.7358 43.7835 36.5147C44.011 36.2935 44.323 36.1775 44.6396 36.1965L60.1302 37.1258C60.4431 37.1444 60.7368 37.2941 60.9358 37.5364C61.1349 37.7785 61.225 38.0955 61.1831 38.4061L58.5626 57.8146C58.4833 58.4018 57.9583 58.831 57.3673 58.7918L45.1161 57.9814C44.9918 57.9731 44.8735 57.9454 44.7638 57.9011C44.3592 57.7374 44.0752 57.3483 44.0606 56.8885V56.8885Z" fill="#0075FF"/>
<path d="M43.461 35.5346C43.6777 35.5117 43.968 35.4837 44.3165 35.4544C44.2234 35.2808 44.1852 35.0756 44.2251 34.8649L44.5017 33.4023C44.5735 33.0227 44.8793 32.7316 45.2621 32.6804C47.5429 32.3753 55.388 31.5476 60.3278 33.7895C60.6369 33.9297 60.8357 34.2377 60.8456 34.5771L60.8908 36.1375C60.8963 36.3305 60.8403 36.5093 60.7421 36.6575C61.1527 36.768 61.5621 36.8848 61.9681 37.0122C62.2226 37.092 62.4047 37.3166 62.4353 37.5816L62.512 38.2463C62.5607 38.6681 62.2151 39.0307 61.7916 39.0021L43.2724 37.751C42.851 37.7225 42.5575 37.3202 42.6589 36.9101L42.8722 36.0472C42.941 35.7691 43.1763 35.5645 43.461 35.5346V35.5346Z" fill="#3F3D56"/>
<path d="M287.025 117.238L286.406 97.7103C286.396 97.3934 286.52 97.0848 286.748 96.8637C286.975 96.6425 287.287 96.5265 287.604 96.5455L303.094 97.4748C303.407 97.4934 303.701 97.6431 303.9 97.8854C304.099 98.1275 304.189 98.4445 304.147 98.7551L301.527 118.164C301.447 118.751 300.922 119.18 300.331 119.141L288.08 118.33C287.956 118.322 287.837 118.294 287.728 118.25C287.323 118.086 287.039 117.697 287.025 117.238V117.238Z" fill="#0075FF"/>
<path d="M286.425 95.8836C286.642 95.8607 286.932 95.8327 287.281 95.8034C287.187 95.6298 287.149 95.4246 287.189 95.214L287.466 93.7513C287.538 93.3717 287.843 93.0806 288.226 93.0294C290.507 92.7243 298.352 91.8966 303.292 94.1385C303.601 94.2787 303.8 94.5867 303.81 94.9261L303.855 96.4865C303.86 96.6794 303.804 96.8583 303.706 97.0065C304.117 97.117 304.526 97.2338 304.932 97.3612C305.187 97.441 305.369 97.6656 305.399 97.9306L305.476 98.5953C305.525 99.0171 305.179 99.3797 304.756 99.3511L286.236 98.1C285.815 98.0715 285.522 97.6692 285.623 97.2591L285.836 96.3962C285.905 96.1181 286.14 95.9135 286.425 95.8836V95.8836Z" fill="#3F3D56"/>
</svg>
