<svg width="300" height="200" viewBox="0 0 300 200" fill="none" xmlns="http://www.w3.org/2000/svg">
<g clip-path="url(#clip0_1525_198)">
<path d="M0.404657 166.754H297.97C302.161 161.517 297.567 152.042 292.146 148.092C286.725 144.142 279.889 142.062 275.415 137.064C268.405 129.234 269.56 117.367 270.213 106.878C270.867 96.3893 269.422 83.7988 260.135 78.881C251.569 74.3456 240.774 78.9038 231.481 76.1497C222.299 73.4297 216.759 64.4334 211.136 56.682C192.031 30.5852 163.838 12.5967 132.121 6.2658C118.603 3.6284 104.176 3.27826 91.4698 8.59559C78.764 13.9129 68.2055 25.8146 67.4681 39.5683C66.9464 49.2965 71.1589 58.5687 73.2904 68.0748C75.4219 77.5809 74.771 89.0785 67.0275 94.9908C60.7582 99.7769 52.1195 99.2438 44.2958 100.247C36.4721 101.25 27.4898 105.786 27.2638 113.668C27.0165 122.221 37.5052 129.101 35.3569 137.383C34.0439 142.446 28.4729 145.142 23.3223 146.051C18.1716 146.961 12.698 146.808 8.01468 149.136C3.33136 151.464 -2.57249 162.454 0.404657 166.754Z" fill="#3E71D3" fill-opacity="0.1"/>
<path d="M150.088 195.703C89.1473 195.703 39.7449 194.043 39.7449 191.994C39.7449 189.946 89.1473 188.285 150.088 188.285C211.029 188.285 260.432 189.946 260.432 191.994C260.432 194.043 211.029 195.703 150.088 195.703Z" fill="#3E71D3" fill-opacity="0.2"/>
<path d="M201.789 73.9815H208.79C209.416 73.9816 210.016 74.2303 210.459 74.6729C210.902 75.1154 211.15 75.7156 211.15 76.3415V80.7162C211.15 81.342 210.902 81.9422 210.459 82.3848C210.016 82.8273 209.416 83.076 208.79 83.0761H203.123V81.3359C201.415 81.3358 199.777 80.6573 198.569 79.4497L197.718 78.5986L201.789 73.9815Z" fill="#EBA58E"/>
<path d="M201.79 73.9816L197.719 78.5987L180.235 74.534L182.654 68.0659L201.79 73.9816Z" fill="#EBA58E"/>
<path d="M182.654 68.0659L183.507 68.33L183.784 75.3594L180.235 74.5345L182.654 68.0659Z" fill="#DD8C76"/>
<path d="M149.175 43.0495C150.285 42.1786 151.688 41.7689 153.092 41.9056C154.496 42.0423 155.794 42.7148 156.715 43.7834L174.851 64.8193L178.129 65.9246L175.083 74.0692L173.364 73.6963C170.643 73.1067 168.162 71.7132 166.242 69.6965L148.587 51.1462C148.06 50.5924 147.655 49.9347 147.397 49.2151C147.139 48.4956 147.035 47.7301 147.09 46.9678C147.146 46.2055 147.36 45.4631 147.719 44.7884C148.078 44.1136 148.574 43.5213 149.175 43.0495Z" fill="#5297F4"/>
<path d="M174.991 74.3289L175.089 74.0702L178.135 65.9256L178.436 65.12C178.477 65.0101 178.539 64.9093 178.619 64.8234C178.699 64.7376 178.795 64.6684 178.901 64.6197C179.008 64.5711 179.123 64.5441 179.241 64.5401C179.358 64.5362 179.475 64.5554 179.584 64.5968L182.582 65.7174C182.692 65.7582 182.792 65.8203 182.878 65.9002C182.964 65.9801 183.033 66.0761 183.082 66.1828C183.131 66.2895 183.158 66.4048 183.162 66.522C183.166 66.6392 183.146 66.756 183.105 66.8657L182.861 67.5185L180.013 75.1345L179.661 76.0741C179.621 76.184 179.559 76.2848 179.479 76.3707C179.399 76.4565 179.303 76.5257 179.196 76.5744C179.089 76.623 178.974 76.65 178.857 76.654C178.74 76.6579 178.623 76.6387 178.513 76.5973L175.516 75.4762C175.406 75.4356 175.305 75.3736 175.219 75.2939C175.133 75.2142 175.064 75.1183 175.015 75.0117C174.966 74.9051 174.939 74.7899 174.934 74.6727C174.93 74.5555 174.949 74.4387 174.991 74.3289V74.3289Z" fill="#3985D8"/>
<path d="M155.572 44.6602C154.753 43.7106 153.635 43.0676 152.403 42.8369C151.17 42.6062 149.896 42.8015 148.789 43.3907C148.914 43.2735 149.041 43.1583 149.178 43.0505C150.288 42.1796 151.691 41.7699 153.095 41.9065C154.499 42.0432 155.797 42.7158 156.718 43.7844L174.854 64.8203L178.132 65.9256L177.642 67.2326L173.962 65.9913L155.572 44.6602Z" fill="#5DABFF"/>
<path d="M155.49 86.8237L193.289 96.8832C194.811 97.2883 196.218 98.0416 197.399 99.0836C198.581 100.126 199.503 101.428 200.095 102.887C200.687 104.347 200.932 105.924 200.81 107.495C200.688 109.065 200.203 110.586 199.392 111.937L177.359 148.676L165.09 143.232L182.721 109.705L146.817 102.202C145.18 101.859 143.635 101.172 142.284 100.185C140.934 99.1989 139.809 97.9359 138.985 96.4806C138.161 95.0253 137.656 93.4111 137.505 91.7455C137.353 90.0799 137.559 88.4012 138.107 86.8212H155.49V86.8237Z" fill="#422C4F"/>
<path d="M166.679 145.739L167.6 144.345L174.573 147.438L172.932 150.425L165.162 148.244C165.636 147.393 166.138 146.558 166.679 145.739Z" fill="#EBA58E"/>
<path d="M168.596 151.756L169.245 153.409L168.379 152.799C168.035 152.557 167.625 152.427 167.205 152.427H163.134C163.728 150.994 164.405 149.598 165.162 148.244L172.932 150.425L172.463 151.279H168.922C168.865 151.279 168.809 151.293 168.759 151.319C168.708 151.345 168.665 151.384 168.633 151.431C168.6 151.478 168.58 151.532 168.574 151.589C168.567 151.645 168.575 151.703 168.596 151.756V151.756Z" fill="white"/>
<path d="M177.529 158.872H161.061L161.361 157.708C161.828 155.908 162.421 154.142 163.135 152.425H167.206C167.626 152.425 168.036 152.555 168.38 152.797L169.246 153.406L168.597 151.753C168.576 151.7 168.568 151.643 168.575 151.587C168.581 151.53 168.601 151.476 168.633 151.429C168.665 151.382 168.708 151.344 168.758 151.317C168.808 151.291 168.864 151.277 168.921 151.277H172.462L175.078 153.736C176.263 154.85 177.829 155.47 179.455 155.47H181.238C182.069 155.47 182.884 155.694 183.597 156.118C184.311 156.543 184.897 157.152 185.293 157.882L181.897 158.486C180.455 158.743 178.994 158.872 177.529 158.872V158.872Z" fill="#422C4F"/>
<path d="M177.529 158.872C178.993 158.872 180.454 158.743 181.895 158.486L185.291 157.882C185.635 158.51 185.827 159.21 185.853 159.926L180.664 160.396C179.844 160.471 179.021 160.508 178.196 160.508H160.64L161.062 158.872H177.529Z" fill="white"/>
<path d="M167.6 144.345L174.573 147.438L173.82 148.809L166.229 146.441L167.6 144.345Z" fill="#422C4F"/>
<path d="M213.813 83.4404H215.594L220.186 99.6866C223.778 112.394 222.33 125.997 216.145 137.664L213.906 138.507L213.813 83.4404Z" fill="#33589F"/>
<path d="M220.188 99.6866L215.595 83.4404H217.268L226.694 118.43C227.107 119.962 228.014 121.316 229.273 122.282C230.533 123.248 232.076 123.771 233.664 123.771C233.782 123.771 233.895 123.818 233.978 123.901C234.062 123.985 234.109 124.098 234.109 124.216V130.895L216.145 137.664C222.331 125.997 223.779 112.394 220.188 99.6866V99.6866Z" fill="#3E71D3"/>
<path d="M235.337 191.128C221.477 191.128 210.241 179.892 210.241 166.033C210.241 152.173 221.477 140.938 235.337 140.938C249.196 140.938 260.432 152.173 260.432 166.033C260.432 179.892 249.196 191.128 235.337 191.128Z" fill="#422C4F"/>
<path d="M235.336 184.102C225.357 184.102 217.267 176.012 217.267 166.033C217.267 156.054 225.357 147.964 235.336 147.964C245.315 147.964 253.404 156.054 253.404 166.033C253.404 176.012 245.315 184.102 235.336 184.102Z" fill="#495375"/>
<path d="M235.336 180.787C227.187 180.787 220.582 174.181 220.582 166.033C220.582 157.885 227.187 151.279 235.336 151.279C243.484 151.279 250.089 157.885 250.089 166.033C250.089 174.181 243.484 180.787 235.336 180.787Z" fill="#C7D2D7"/>
<path d="M235.336 151.279C238.021 151.275 240.655 152.007 242.952 153.395C241.029 152.908 239.019 152.867 237.078 153.274C235.136 153.682 233.312 154.527 231.747 155.746C230.181 156.965 228.914 158.526 228.043 160.308C227.172 162.091 226.719 164.049 226.719 166.033C226.719 168.017 227.172 169.975 228.043 171.758C228.914 173.541 230.181 175.101 231.747 176.32C233.312 177.539 235.136 178.384 237.078 178.792C239.019 179.199 241.029 179.158 242.952 178.672C241.004 179.845 238.811 180.553 236.544 180.739C234.277 180.924 231.997 180.583 229.884 179.742C227.771 178.901 225.88 177.583 224.361 175.891C222.841 174.198 221.733 172.177 221.124 169.986C220.515 167.794 220.42 165.492 220.848 163.258C221.276 161.024 222.215 158.919 223.591 157.108C224.967 155.297 226.743 153.828 228.781 152.817C230.818 151.806 233.062 151.28 235.336 151.279V151.279Z" fill="#99A3B0"/>
<path d="M235.336 172.539C231.743 172.539 228.83 169.626 228.83 166.033C228.83 162.44 231.743 159.527 235.336 159.527C238.929 159.527 241.842 162.44 241.842 166.033C241.842 169.626 238.929 172.539 235.336 172.539Z" fill="#99A3B0"/>
<path d="M232.22 169.15C230.498 167.428 230.498 164.638 232.22 162.916C233.941 161.195 236.732 161.195 238.453 162.916C240.175 164.638 240.175 167.428 238.453 169.15C236.732 170.871 233.941 170.871 232.22 169.15Z" fill="#33589F"/>
<path d="M106.433 191.128C92.5734 191.128 81.3379 179.892 81.3379 166.033C81.3379 152.173 92.5734 140.938 106.433 140.938C120.293 140.938 131.528 152.173 131.528 166.033C131.528 179.892 120.293 191.128 106.433 191.128Z" fill="#422C4F"/>
<path d="M106.433 184.102C96.4543 184.102 88.3647 176.012 88.3647 166.033C88.3647 156.054 96.4543 147.964 106.433 147.964C116.412 147.964 124.502 156.054 124.502 166.033C124.502 176.012 116.412 184.102 106.433 184.102Z" fill="#495375"/>
<path d="M106.433 180.787C98.2846 180.787 91.6791 174.181 91.6791 166.033C91.6791 157.885 98.2846 151.279 106.433 151.279C114.581 151.279 121.187 157.885 121.187 166.033C121.187 174.181 114.581 180.787 106.433 180.787Z" fill="#C7D2D7"/>
<path d="M106.434 151.279C109.118 151.275 111.752 152.007 114.05 153.395C112.126 152.908 110.117 152.867 108.175 153.274C106.233 153.682 104.41 154.527 102.844 155.746C101.278 156.965 100.011 158.526 99.1401 160.308C98.2687 162.091 97.8158 164.049 97.8158 166.033C97.8158 168.017 98.2687 169.975 99.1401 171.758C100.011 173.541 101.278 175.101 102.844 176.32C104.41 177.539 106.233 178.384 108.175 178.792C110.117 179.199 112.126 179.158 114.05 178.672C112.101 179.845 109.908 180.553 107.641 180.739C105.374 180.924 103.095 180.583 100.981 179.742C98.8677 178.901 96.9773 177.583 95.4577 175.891C93.9381 174.198 92.8303 172.177 92.221 169.986C91.6117 167.794 91.5174 165.492 91.9453 163.258C92.3732 161.024 93.3119 158.919 94.688 157.108C96.064 155.297 97.8402 153.828 99.8777 152.817C101.915 151.806 104.159 151.28 106.434 151.279V151.279Z" fill="#99A3B0"/>
<path d="M106.433 172.539C102.84 172.539 99.927 169.626 99.927 166.033C99.927 162.44 102.84 159.527 106.433 159.527C110.027 159.527 112.939 162.44 112.939 166.033C112.939 169.626 110.027 172.539 106.433 172.539Z" fill="#99A3B0"/>
<path d="M103.317 169.15C101.595 167.428 101.595 164.638 103.317 162.916C105.038 161.195 107.829 161.195 109.55 162.916C111.272 164.638 111.272 167.428 109.55 169.15C107.829 170.871 105.038 170.871 103.317 169.15Z" fill="#33589F"/>
<path d="M234.126 132.796C221.2 133.203 210.146 142.249 206.707 154.716L206.148 156.744L205.541 157.04L206.707 152.815C210.146 140.349 221.2 131.303 234.126 130.896C234.46 130.886 234.794 130.88 235.13 130.88C240.603 130.869 245.983 132.305 250.724 135.041L249.87 136.468C245.338 134.039 240.274 132.772 235.132 132.781C234.795 132.781 234.46 132.786 234.126 132.796Z" fill="white"/>
<path d="M231.764 144.151L206.147 156.741L206.706 154.713C210.146 142.247 221.2 133.201 234.125 132.794C234.459 132.783 234.794 132.778 235.129 132.778C240.271 132.769 245.334 134.035 249.866 136.464L245.267 144.149L231.764 144.151Z" fill="#6E9DF8"/>
<path d="M204.33 158.941H216.304C221.687 158.941 226.849 156.802 230.655 152.996C234.462 149.19 239.624 147.052 245.007 147.052H259.204L254.711 142.559C252.14 139.987 249.087 137.948 245.728 136.556C242.368 135.164 238.767 134.448 235.131 134.448C230.476 134.448 225.896 135.622 221.815 137.86C217.734 140.098 214.283 143.329 211.781 147.253L204.33 158.941Z" fill="#3E71D3"/>
<path d="M213.813 83.4401L218.405 99.6864C222.088 112.713 220.472 126.668 213.909 138.508L211.617 142.645C208.429 148.397 203.76 153.19 198.095 156.528C192.429 159.866 185.973 161.626 179.397 161.626H66.3632L70.411 146.93C74.4049 132.43 83.7301 119.976 96.5184 112.062L103.838 107.532H166.719V110.279C166.719 111.169 166.44 112.036 165.921 112.758C165.402 113.481 164.67 114.022 163.827 114.307C160.53 115.417 157.615 117.437 155.418 120.133C153.22 122.83 151.83 126.092 151.407 129.545C151.089 132.137 151.326 134.768 152.101 137.262C152.876 139.756 154.172 142.057 155.903 144.013C157.634 145.968 159.761 147.534 162.142 148.607C164.523 149.679 167.105 150.234 169.717 150.234H178.911C183.248 150.234 187.514 149.138 191.315 147.05C195.115 144.961 198.327 141.946 200.652 138.285L204.914 131.573C209.615 124.17 211.223 115.218 209.393 106.642L204.441 83.4396L213.813 83.4401Z" fill="#3E71D3"/>
<path d="M103.839 107.532H171.8V99.4641H117.606C115.74 99.4641 113.894 99.8372 112.175 100.562C110.456 101.286 108.899 102.347 107.596 103.682L103.839 107.532Z" fill="#422C4F"/>
<path d="M143.351 162.74H173.864C180.638 162.739 187.289 160.925 193.126 157.486C198.963 154.047 203.773 149.11 207.059 143.185L209.352 139.048C212.688 133.064 214.811 126.48 215.599 119.674C216.388 112.868 215.825 105.974 213.945 99.3854C212.73 95.0435 213.289 90.3969 215.498 86.4665C215.639 86.2093 215.673 85.907 215.592 85.6251C215.512 85.3431 215.324 85.1041 215.068 84.9597C214.813 84.8154 214.511 84.7773 214.228 84.8538C213.945 84.9302 213.704 85.115 213.556 85.3681C211.055 89.8173 210.423 95.0772 211.798 99.9922C213.599 106.3 214.137 112.902 213.383 119.419C212.628 125.935 210.595 132.239 207.401 137.969L205.109 142.107C202.017 147.683 197.489 152.33 191.995 155.567C186.501 158.803 180.242 160.511 173.865 160.512H143.352C143.056 160.512 142.773 160.63 142.563 160.839C142.354 161.048 142.237 161.332 142.237 161.628C142.237 161.923 142.354 162.207 142.563 162.416C142.773 162.625 143.056 162.743 143.352 162.743L143.351 162.74Z" fill="#6E9DF8"/>
<path d="M142.245 157.257H72.3314L73.4016 158.327C75.1117 160.037 77.431 160.998 79.8494 160.998H134.881C136.316 160.997 137.731 160.659 139.011 160.008C140.29 159.358 141.398 158.415 142.245 157.256V157.257Z" fill="#33589F"/>
<path d="M111.712 168.747C103.36 168.747 96.5897 161.976 96.5897 153.624C96.5897 145.272 103.36 138.502 111.712 138.502C120.064 138.502 126.835 145.272 126.835 153.624C126.835 161.976 120.064 168.747 111.712 168.747Z" fill="#99A3B0"/>
<path d="M111.713 165.255C114.013 165.255 116.262 164.573 118.174 163.295C120.087 162.017 121.578 160.2 122.458 158.075C123.338 155.95 123.569 153.611 123.12 151.355C122.671 149.099 121.563 147.027 119.937 145.4C118.31 143.774 116.238 142.666 113.982 142.217C111.725 141.768 109.387 141.999 107.262 142.879C105.137 143.759 103.32 145.25 102.042 147.163C100.764 149.075 100.082 151.324 100.082 153.624C100.085 156.708 101.312 159.664 103.492 161.845C105.673 164.025 108.629 165.252 111.713 165.255V165.255ZM111.713 143.232C113.768 143.232 115.777 143.841 117.486 144.983C119.195 146.125 120.527 147.748 121.314 149.648C122.1 151.547 122.306 153.636 121.905 155.652C121.504 157.668 120.514 159.52 119.061 160.973C117.607 162.427 115.755 163.417 113.739 163.817C111.723 164.218 109.634 164.013 107.735 163.226C105.836 162.439 104.213 161.107 103.071 159.398C101.929 157.689 101.319 155.68 101.319 153.624C101.322 150.869 102.418 148.227 104.367 146.279C106.315 144.33 108.957 143.235 111.713 143.232V143.232Z" fill="#495375"/>
<path d="M104.159 154.243H119.265C119.349 154.247 119.432 154.233 119.51 154.204C119.587 154.174 119.659 154.129 119.719 154.071C119.779 154.014 119.827 153.944 119.859 153.868C119.892 153.791 119.909 153.708 119.909 153.625C119.909 153.542 119.892 153.459 119.859 153.383C119.827 153.306 119.779 153.237 119.719 153.179C119.659 153.121 119.587 153.076 119.51 153.047C119.432 153.017 119.349 153.004 119.265 153.007H104.159C104 153.013 103.849 153.081 103.738 153.197C103.627 153.312 103.566 153.465 103.566 153.625C103.566 153.785 103.627 153.939 103.738 154.054C103.849 154.169 104 154.237 104.159 154.243V154.243Z" fill="#495375"/>
<path d="M105.459 151.768H117.964C118.124 151.762 118.275 151.694 118.386 151.579C118.496 151.463 118.558 151.31 118.558 151.15C118.558 150.99 118.496 150.837 118.386 150.721C118.275 150.606 118.124 150.538 117.964 150.532H105.459C105.375 150.529 105.292 150.542 105.214 150.572C105.137 150.601 105.065 150.646 105.005 150.704C104.945 150.762 104.897 150.831 104.865 150.908C104.832 150.984 104.815 151.067 104.815 151.15C104.815 151.233 104.832 151.316 104.865 151.393C104.897 151.469 104.945 151.538 105.005 151.596C105.065 151.654 105.137 151.699 105.214 151.728C105.292 151.758 105.375 151.772 105.459 151.768V151.768Z" fill="#495375"/>
<path d="M107.207 149.294H116.218C116.378 149.288 116.529 149.22 116.64 149.105C116.75 148.989 116.812 148.836 116.812 148.676C116.812 148.516 116.75 148.363 116.64 148.247C116.529 148.132 116.378 148.064 116.218 148.058H107.207C107.047 148.064 106.896 148.132 106.785 148.247C106.675 148.363 106.613 148.516 106.613 148.676C106.613 148.836 106.675 148.989 106.785 149.105C106.896 149.22 107.047 149.288 107.207 149.294Z" fill="#495375"/>
<path d="M109.284 146.82H114.14C114.224 146.823 114.307 146.809 114.385 146.78C114.462 146.75 114.534 146.705 114.594 146.648C114.654 146.59 114.702 146.521 114.734 146.444C114.767 146.367 114.784 146.285 114.784 146.201C114.784 146.118 114.767 146.036 114.734 145.959C114.702 145.882 114.654 145.813 114.594 145.755C114.534 145.698 114.462 145.653 114.385 145.623C114.307 145.593 114.224 145.58 114.14 145.583H109.284C109.125 145.59 108.974 145.658 108.863 145.773C108.752 145.888 108.69 146.042 108.69 146.201C108.69 146.361 108.752 146.515 108.863 146.63C108.974 146.745 109.125 146.813 109.284 146.82V146.82Z" fill="#495375"/>
<path d="M105.459 156.718H117.964C118.124 156.712 118.275 156.644 118.386 156.529C118.496 156.413 118.558 156.26 118.558 156.1C118.558 155.94 118.496 155.786 118.386 155.671C118.275 155.556 118.124 155.488 117.964 155.482H105.459C105.299 155.488 105.148 155.556 105.037 155.671C104.927 155.786 104.865 155.94 104.865 156.1C104.865 156.26 104.927 156.413 105.037 156.529C105.148 156.644 105.299 156.712 105.459 156.718Z" fill="#495375"/>
<path d="M107.207 159.193H116.218C116.378 159.186 116.529 159.118 116.64 159.003C116.75 158.888 116.812 158.734 116.812 158.574C116.812 158.415 116.75 158.261 116.64 158.146C116.529 158.03 116.378 157.963 116.218 157.956H107.207C107.047 157.963 106.896 158.03 106.785 158.146C106.675 158.261 106.613 158.415 106.613 158.574C106.613 158.734 106.675 158.888 106.785 159.003C106.896 159.118 107.047 159.186 107.207 159.193V159.193Z" fill="#495375"/>
<path d="M109.284 161.667H114.14C114.224 161.671 114.307 161.657 114.385 161.628C114.462 161.598 114.534 161.553 114.594 161.495C114.654 161.437 114.702 161.368 114.734 161.292C114.767 161.215 114.784 161.132 114.784 161.049C114.784 160.966 114.767 160.883 114.734 160.807C114.702 160.73 114.654 160.661 114.594 160.603C114.534 160.545 114.462 160.5 114.385 160.471C114.307 160.441 114.224 160.428 114.14 160.431H109.284C109.125 160.437 108.974 160.505 108.863 160.62C108.752 160.736 108.69 160.889 108.69 161.049C108.69 161.209 108.752 161.362 108.863 161.478C108.974 161.593 109.125 161.661 109.284 161.667V161.667Z" fill="#495375"/>
<path d="M95.3915 120.871C102.586 116.499 110.844 114.186 119.264 114.186H122.086C136.428 114.186 148.589 125.917 148.579 140.258C148.582 146.502 146.333 152.537 142.245 157.257H72.332L75.0109 147.721C78.1592 136.513 85.443 126.917 95.3915 120.871Z" fill="#33589F"/>
<path d="M99.4256 130.612C104.694 127.41 110.741 125.717 116.907 125.716H118.974C129.476 125.716 138.381 134.307 138.374 144.809C138.376 149.381 136.729 153.8 133.735 157.256H82.5384L84.5003 150.274C86.8059 142.066 92.1401 135.04 99.4256 130.612V130.612Z" fill="#3E71D3"/>
<path d="M99.1044 153.406H122.639C122.817 153.406 122.987 153.336 123.112 153.21C123.238 153.085 123.308 152.915 123.308 152.737C123.308 152.56 123.238 152.39 123.112 152.264C122.987 152.139 122.817 152.068 122.639 152.068H99.1044C98.927 152.068 98.7568 152.139 98.6313 152.264C98.5058 152.39 98.4353 152.56 98.4353 152.737C98.4353 152.915 98.5058 153.085 98.6313 153.21C98.7568 153.336 98.927 153.406 99.1044 153.406V153.406Z" fill="#495375"/>
<path d="M99.8283 150.757H123.361C123.538 150.757 123.708 150.686 123.834 150.561C123.959 150.435 124.03 150.265 124.03 150.088C124.03 149.91 123.959 149.74 123.834 149.615C123.708 149.489 123.538 149.419 123.361 149.419H99.8259C99.6484 149.419 99.4782 149.489 99.3527 149.615C99.2272 149.74 99.1567 149.91 99.1567 150.088C99.1567 150.265 99.2272 150.435 99.3527 150.561C99.4782 150.686 99.6484 150.757 99.8259 150.757H99.8283Z" fill="#495375"/>
<path d="M100.554 148.107H124.088C124.263 148.103 124.428 148.03 124.55 147.905C124.672 147.78 124.74 147.612 124.74 147.438C124.74 147.264 124.672 147.096 124.55 146.971C124.428 146.846 124.263 146.773 124.088 146.769H100.554C100.379 146.773 100.213 146.846 100.092 146.971C99.9702 147.096 99.9021 147.264 99.9021 147.438C99.9021 147.612 99.9702 147.78 100.092 147.905C100.213 148.03 100.379 148.103 100.554 148.107V148.107Z" fill="#495375"/>
<path d="M101.279 145.458H124.813C124.988 145.454 125.153 145.381 125.275 145.256C125.397 145.131 125.465 144.964 125.465 144.789C125.465 144.615 125.397 144.447 125.275 144.322C125.153 144.197 124.988 144.124 124.813 144.12H101.279C101.104 144.124 100.939 144.197 100.817 144.322C100.695 144.447 100.627 144.615 100.627 144.789C100.627 144.964 100.695 145.131 100.817 145.256C100.939 145.381 101.104 145.454 101.279 145.458V145.458Z" fill="#495375"/>
<path d="M102.004 142.809H125.538C125.715 142.809 125.885 142.738 126.011 142.613C126.136 142.487 126.207 142.317 126.207 142.14C126.207 141.962 126.136 141.792 126.011 141.666C125.885 141.541 125.715 141.47 125.538 141.47H102.003C101.825 141.47 101.655 141.541 101.53 141.666C101.404 141.792 101.334 141.962 101.334 142.14C101.334 142.317 101.404 142.487 101.53 142.613C101.655 142.738 101.825 142.809 102.003 142.809H102.004Z" fill="#495375"/>
<path d="M166.72 107.531H103.839C105.23 108.924 107.118 109.707 109.087 109.707H160.897C163.036 109.707 165.103 108.934 166.718 107.531H166.72Z" fill="#33589F"/>
<path d="M204.441 83.4404H223.179V71.4319H219.111C215.62 71.4318 212.171 72.197 209.007 73.6736L205.996 75.0782C205.059 75.5156 204.305 76.2679 203.866 77.2041C203.427 78.1402 203.33 79.2009 203.592 80.2011L204.441 83.4404Z" fill="#3E71D3"/>
<path d="M223.178 71.4319H225.149V83.4404H223.178V71.4319Z" fill="#6E9DF8"/>
<path d="M225.149 71.4319H226.153V83.4404H225.149V71.4319Z" fill="white"/>
<path d="M74.2174 105.81C74.0963 105.684 74.0295 105.515 74.0313 105.34C74.0332 105.165 74.1035 104.998 74.2273 104.874C74.351 104.75 74.5183 104.68 74.6933 104.678C74.8683 104.676 75.0371 104.743 75.1634 104.864L80.7676 110.468H78.8749L74.2174 105.81Z" fill="#C7D2D7"/>
<path d="M80.7683 110.468L89.8456 119.545C89.9712 119.671 90.0417 119.841 90.0417 120.018C90.0418 120.196 89.9714 120.366 89.8459 120.492C89.7204 120.617 89.5503 120.688 89.3728 120.688C89.1953 120.688 89.0251 120.617 88.8996 120.492L78.8757 110.468H80.7683Z" fill="white"/>
<path d="M108.179 113.014H145.896C146.192 113.014 146.476 112.896 146.685 112.687C146.894 112.478 147.011 112.194 147.011 111.899C147.011 111.603 146.894 111.319 146.685 111.11C146.476 110.901 146.192 110.783 145.896 110.783H108.179C106.854 110.787 105.541 110.528 104.317 110.02C103.093 109.513 101.981 108.769 101.047 107.829C99.906 106.682 98.5487 105.772 97.0539 105.153C95.559 104.534 93.9561 104.217 92.338 104.221H55.6583C55.3625 104.221 55.0788 104.339 54.8696 104.548C54.6604 104.757 54.5429 105.041 54.5429 105.337C54.5429 105.633 54.6604 105.916 54.8696 106.126C55.0788 106.335 55.3625 106.452 55.6583 106.452H92.3395C93.6646 106.449 94.9772 106.708 96.2014 107.215C97.4256 107.722 98.537 108.467 99.4713 109.407C100.612 110.554 101.969 111.463 103.464 112.082C104.958 112.701 106.561 113.018 108.179 113.014V113.014Z" fill="white"/>
<path d="M213.81 83.4405H204.441L204.657 84.4508H214.096L213.81 83.4405Z" fill="#33589F"/>
<path d="M39.7434 55.4452H105.691V104.222H39.7434V55.4452Z" fill="#3E71D3"/>
<path d="M37.856 47.4875H107.579V55.4452H37.856V47.4875Z" fill="#3E71D3"/>
<path d="M39.7434 55.4452H105.691V59.3115H39.7434V55.4452Z" fill="#33589F"/>
<path d="M99.2996 93.0133L99.6001 91.877H74.2467L65.1644 93.0133H99.2996Z" fill="white"/>
<path d="M98.8448 94.8L99.1453 93.6637H54.6824L45.6001 94.8H98.8448Z" fill="white"/>
<path d="M99.2996 68.6363L99.6001 67.5H74.2467L65.1644 68.6363H99.2996Z" fill="white"/>
<path d="M98.845 70.4216L99.1455 69.2852H54.6826L45.6004 70.4216H98.845Z" fill="white"/>
<path d="M155.491 86.8236L187.015 96.2452C188.644 96.7316 190.14 97.5838 191.388 98.7366C192.637 99.8894 193.606 101.312 194.221 102.897C194.836 104.481 195.081 106.185 194.936 107.879C194.792 109.572 194.263 111.21 193.389 112.668L171.793 148.676L159.524 143.232L177.155 109.705L141.251 102.201C139.614 101.859 138.069 101.172 136.719 100.185C135.368 99.1988 134.243 97.9359 133.419 96.4806C132.595 95.0253 132.09 93.4111 131.939 91.7455C131.788 90.0799 131.993 88.4012 132.542 86.8212H155.491V86.8236Z" fill="#454F6B"/>
<path d="M161.11 145.738L162.031 144.345L169.004 147.438L167.363 150.425L159.592 148.244C160.068 147.393 160.57 146.557 161.11 145.738Z" fill="#F2C9AD"/>
<path d="M163.027 151.755L163.676 153.409L162.81 152.799C162.466 152.557 162.057 152.427 161.637 152.427H157.566C158.159 150.994 158.836 149.597 159.593 148.244L167.364 150.425L166.895 151.279H163.354C163.297 151.279 163.241 151.292 163.19 151.319C163.139 151.345 163.096 151.383 163.064 151.43C163.032 151.477 163.011 151.532 163.005 151.588C162.998 151.645 163.006 151.702 163.027 151.755Z" fill="white"/>
<path d="M171.961 158.871H155.492L155.792 157.708C156.259 155.907 156.852 154.142 157.567 152.425H161.638C162.058 152.425 162.468 152.555 162.812 152.796L163.678 153.406L163.029 151.753C163.008 151.7 163 151.643 163.007 151.587C163.013 151.53 163.033 151.476 163.065 151.429C163.097 151.382 163.14 151.344 163.19 151.317C163.24 151.291 163.296 151.277 163.353 151.277H166.894L169.51 153.736C170.695 154.849 172.261 155.469 173.887 155.469H175.668C176.498 155.469 177.313 155.694 178.027 156.118C178.741 156.542 179.326 157.152 179.723 157.881L176.327 158.486C174.886 158.742 173.424 158.871 171.961 158.871Z" fill="#422C4F"/>
<path d="M171.961 158.871C173.424 158.871 174.885 158.742 176.326 158.486L179.722 157.881C180.066 158.51 180.258 159.21 180.283 159.926L175.095 160.396C174.274 160.47 173.451 160.508 172.627 160.507H155.071L155.492 158.871H171.961Z" fill="white"/>
<path d="M162.031 144.345L169.004 147.438L168.251 148.809L160.66 146.441L162.031 144.345Z" fill="#422C4F"/>
<path d="M162.485 31.0533L163.44 25.6395C163.595 24.7615 164.054 23.9661 164.737 23.393C165.42 22.8199 166.283 22.5057 167.174 22.5056H172.606L172.121 25.0772C171.769 26.9388 171.803 28.8527 172.219 30.7007L172.457 31.7511C172.48 31.8551 172.48 31.963 172.456 32.0669C172.433 32.1708 172.386 32.268 172.319 32.3513C172.253 32.4347 172.168 32.502 172.072 32.5483C171.976 32.5947 171.871 32.6188 171.765 32.619H170.666C170.333 33.8066 169.715 34.8946 168.864 35.7875C168.013 36.6804 166.956 37.3511 165.786 37.7407C164.616 38.1304 163.368 38.2271 162.152 38.0225C160.936 37.8179 159.788 37.3181 158.81 36.567L152.073 31.3921L155.649 33.8905C156.254 34.3128 156.956 34.5759 157.689 34.6555C158.422 34.735 159.164 34.6285 159.845 34.3458C160.526 34.063 161.125 33.6131 161.587 33.0377C162.048 32.4622 162.357 31.7797 162.485 31.0533V31.0533Z" fill="#F2C9AD"/>
<path d="M172.956 20.6506L172.606 22.5056H167.174C166.283 22.5057 165.42 22.8199 164.737 23.393C164.054 23.9661 163.595 24.7615 163.44 25.6395L162.486 31.0533C162.357 31.7796 162.048 32.462 161.587 33.0373C161.125 33.6127 160.526 34.0624 159.845 34.3451C159.164 34.6277 158.422 34.7342 157.689 34.6545C156.956 34.5749 156.254 34.3118 155.65 33.8895L152.073 31.3911V20.6506H172.956Z" fill="#EBA58E"/>
<path d="M152.073 31.3912L158.81 36.5656L157.913 39.1372L152.073 31.3892V31.3912Z" fill="#422C4F"/>
<path d="M147.357 38.5374L152.073 31.3912L157.913 39.1392L156.385 43.5234L147.357 38.5374Z" fill="#F2C9AD"/>
<path d="M168.554 26.7789C168.452 27.3986 168.641 27.945 168.975 27.9999C169.309 28.0548 169.663 27.5974 169.766 26.9782C169.87 26.359 169.68 25.8116 169.346 25.7567C169.012 25.7018 168.657 26.1573 168.554 26.7789Z" fill="#422C4F"/>
<path d="M170.151 24.5966C169.887 24.4444 169.585 24.371 169.281 24.3848C168.976 24.3986 168.682 24.4992 168.433 24.6747C167.91 25.0209 167.422 24.1802 167.942 23.834C168.341 23.5723 168.804 23.4265 169.281 23.4127C169.758 23.3989 170.229 23.5177 170.642 23.7559C170.754 23.821 170.835 23.9277 170.868 24.0526C170.9 24.1775 170.882 24.3103 170.817 24.4218C170.752 24.5333 170.645 24.6143 170.52 24.6471C170.395 24.6799 170.263 24.6617 170.151 24.5966V24.5966Z" fill="#422C4F"/>
<path d="M168.829 30.5618L167.741 30.9367C166.146 31.4855 164.423 31.5372 162.799 31.085L160.083 30.3195L160.72 29.047L162.797 29.6247C164.422 30.0763 166.145 30.0246 167.739 29.4763L168.827 29.1009C169.79 28.7694 170.777 28.5141 171.779 28.3374L172.169 28.2681L172.524 29.682L171.779 29.7977C170.777 29.9745 169.791 30.23 168.829 30.5618V30.5618Z" fill="white"/>
<path d="M160.083 30.3214L162.798 31.087C164.423 31.5391 166.146 31.4874 167.74 30.9386L168.828 30.5638C169.791 30.2318 170.778 29.9763 171.78 29.7997L172.525 29.684L172.643 30.1513C172.846 30.9605 172.803 31.812 172.518 32.5963L171.908 34.2778C171.385 35.7206 170.449 36.9777 169.217 37.8928C167.985 38.8079 166.511 39.3405 164.978 39.4245V39.4245C163.028 39.5313 161.108 38.9051 159.595 37.6688L157.33 35.8173L160.083 30.3214Z" fill="#3E71D3"/>
<path opacity="0.3" d="M162.74 29.6099L162.485 31.0535C162.299 32.1134 161.729 33.0676 160.884 33.7346C160.039 34.4016 158.979 34.7347 157.904 34.6705L160.72 29.0491L162.74 29.6099Z" fill="#422C4F"/>
<path d="M158.81 32.5811L160.867 38.4439C160.883 38.4886 160.887 38.5365 160.879 38.5831C160.871 38.6298 160.851 38.6736 160.821 38.7105C160.791 38.7473 160.753 38.7759 160.709 38.7935C160.665 38.8112 160.617 38.8173 160.57 38.8114V38.8114C159.812 38.7208 159.085 38.4547 158.447 38.034C157.809 37.6133 157.279 37.0498 156.897 36.3881L154.287 31.863L158.81 32.5811Z" fill="#454F6B"/>
<path d="M160.822 23.6183L159.687 30.0434C159.642 30.3008 159.54 30.5451 159.39 30.7589C159.24 30.9728 159.044 31.151 158.818 31.2811C158.591 31.4111 158.338 31.4898 158.078 31.5116C157.818 31.5333 157.555 31.4976 157.31 31.4069L146.14 27.27V19.2748C146.14 17.3214 146.524 15.3871 147.272 13.5824C148.019 11.7777 149.115 10.1379 150.496 8.75665C151.878 7.37539 153.517 6.27972 155.322 5.53218C157.127 4.78465 159.061 4.3999 161.014 4.3999V4.3999C164.881 4.40048 168.596 5.90712 171.37 8.60036C174.145 11.2936 175.762 14.9616 175.877 18.8267H166.535C165.171 18.8263 163.851 19.3064 162.806 20.1827C161.761 21.059 161.059 22.2755 160.822 23.6183V23.6183Z" fill="#3768C6"/>
<path d="M151.776 16.4766C152.143 16.4767 152.503 16.3763 152.817 16.1862C153.131 15.9962 153.386 15.7237 153.556 15.3985C154.265 14.0325 155.335 12.8874 156.65 12.0886C157.965 11.2898 159.475 10.8678 161.013 10.869C161.54 10.8607 162.043 10.6455 162.413 10.2699C162.783 9.89434 162.99 9.38842 162.99 8.86136C162.99 8.33431 162.783 7.82839 162.413 7.45279C162.043 7.07719 161.54 6.86204 161.013 6.85377C158.741 6.85132 156.511 7.47361 154.569 8.65263C152.626 9.83164 151.044 11.522 149.997 13.539C149.838 13.8449 149.759 14.1867 149.77 14.5317C149.781 14.8766 149.881 15.2129 150.059 15.5081C150.238 15.8034 150.49 16.0476 150.79 16.2172C151.091 16.3869 151.43 16.4762 151.775 16.4766H151.776Z" fill="white"/>
<path d="M167.158 12.8528C167.581 12.8531 167.994 12.7195 168.337 12.471C168.68 12.2225 168.936 11.8718 169.067 11.4692C169.199 11.0666 169.2 10.6326 169.07 10.2294C168.94 9.82623 168.686 9.47442 168.344 9.22435L168.251 9.1566C167.818 8.84943 167.281 8.72622 166.758 8.81391C166.234 8.90161 165.766 9.19307 165.457 9.62456C165.148 10.056 165.022 10.5924 165.107 11.1164C165.193 11.6404 165.482 12.1093 165.912 12.4206L165.975 12.4656C166.318 12.7172 166.732 12.8529 167.158 12.8528V12.8528Z" fill="white"/>
<path d="M157.31 31.4069C157.556 31.4976 157.818 31.5333 158.078 31.5116C158.339 31.4898 158.591 31.4112 158.818 31.2811C159.044 31.151 159.24 30.9728 159.39 30.7589C159.54 30.5451 159.642 30.3008 159.687 30.0435L160.822 23.6183C161.059 22.2755 161.761 21.059 162.806 20.1827C163.851 19.3064 165.171 18.8263 166.535 18.8267H175.878C175.882 18.9751 175.889 19.1235 175.889 19.2748V20.6506H167.029C165.98 20.6507 164.965 21.0201 164.162 21.6942C163.358 22.3682 162.818 23.3037 162.636 24.3364L161.511 30.7116C161.417 31.2438 161.203 31.7477 160.886 32.1853C160.569 32.6229 160.156 32.9828 159.68 33.2378C159.203 33.4928 158.675 33.6362 158.135 33.6573C157.595 33.6783 157.057 33.5765 156.562 33.3594L147.208 29.2547C146.891 29.1156 146.621 28.8872 146.431 28.5974C146.242 28.3077 146.141 27.969 146.14 27.6227V27.2701L157.31 31.4069Z" fill="#6E9DF8"/>
<path d="M158.226 83.393L155.491 71.432L159.417 49.9193C159.645 48.6701 159.475 47.3808 158.931 46.2335C158.387 45.0861 157.496 44.1387 156.384 43.5249L147.357 38.5389C146.78 38.2199 146.119 38.0849 145.462 38.1521C144.806 38.2193 144.186 38.4854 143.685 38.9148V38.9148C136.249 45.288 131.596 54.3135 130.718 64.0677L129.019 82.9706C128.975 83.4595 129.033 83.9521 129.19 84.4172C129.347 84.8823 129.599 85.3095 129.93 85.6718C130.261 86.0341 130.664 86.3234 131.114 86.5214C131.563 86.7194 132.048 86.8216 132.539 86.8216H155.49C155.912 86.8216 156.328 86.7267 156.707 86.5439C157.087 86.3611 157.42 86.0951 157.683 85.7657C157.946 85.4363 158.131 85.052 158.225 84.6412C158.319 84.2304 158.319 83.8038 158.226 83.393V83.393Z" fill="#5DABFF"/>
<path d="M144.613 47.4796L144.537 47.7723C144.068 49.5785 143.996 51.4647 144.324 53.3016C144.652 55.1386 145.373 56.8829 146.439 58.4149L155.489 71.4318L157.329 61.3505L144.613 47.4796Z" fill="#5297F4"/>
<path d="M157.231 41.0945L159.712 42.3773L157.231 45.0543L156.384 43.5212L157.231 41.0945Z" fill="#5DABFF"/>
<path d="M159.709 42.3774L160.272 46.9504L157.717 44.5272L159.709 42.3774Z" fill="#5297F4"/>
<path d="M145.896 38.1336L148.526 35.8152L157.913 40.9456L156.631 46.3737L145.896 38.1336Z" fill="#6BC5FF"/>
<path d="M198.896 76.2198H205.897C206.207 76.2198 206.514 76.2808 206.8 76.3994C207.086 76.5179 207.347 76.6918 207.566 76.9109C207.785 77.1301 207.959 77.3903 208.077 77.6766C208.196 77.963 208.257 78.2699 208.257 78.5798V82.954C208.257 83.264 208.196 83.5709 208.077 83.8572C207.959 84.1436 207.785 84.4038 207.566 84.6229C207.347 84.8421 207.086 85.0159 206.8 85.1345C206.514 85.2531 206.207 85.3141 205.897 85.314H200.229V83.5737C199.384 83.5737 198.546 83.4071 197.765 83.0835C196.984 82.7599 196.274 82.2855 195.676 81.6875L194.825 80.8364L198.896 76.2198Z" fill="#F2C9AD"/>
<path d="M198.896 76.2199L194.825 80.8369L177.342 76.7723L179.76 70.3041L198.896 76.2199Z" fill="#F2C9AD"/>
<path d="M179.76 70.3041L180.614 70.5682L180.89 77.5977L177.342 76.7728L179.76 70.3041Z" fill="#EBA58E"/>
<path d="M146.285 45.2881C147.395 44.4173 148.798 44.0077 150.202 44.1443C151.606 44.281 152.903 44.9535 153.825 46.022L171.96 67.0579L175.238 68.1632L172.193 76.3078L170.473 75.9354C167.752 75.3457 165.271 73.952 163.352 71.935L145.697 53.3847C145.17 52.831 144.764 52.1733 144.507 51.4537C144.249 50.7342 144.144 49.9687 144.2 49.2063C144.255 48.444 144.469 47.7016 144.828 47.0269C145.187 46.3521 145.683 45.7599 146.285 45.2881V45.2881Z" fill="#5DABFF"/>
<path d="M172.096 76.5671L172.195 76.308L175.239 68.1634L175.54 67.3578C175.581 67.2478 175.643 67.1471 175.723 67.0612C175.803 66.9754 175.899 66.9061 176.005 66.8575C176.112 66.8089 176.227 66.7819 176.345 66.7779C176.462 66.774 176.579 66.7932 176.688 66.8345L179.686 67.9552C179.796 67.996 179.896 68.0581 179.982 68.138C180.068 68.2179 180.137 68.3139 180.186 68.4206C180.235 68.5273 180.262 68.6426 180.266 68.7598C180.27 68.877 180.25 68.9938 180.209 69.1035L179.965 69.7568L177.117 77.3728L176.765 78.3124C176.725 78.4223 176.663 78.523 176.583 78.6088C176.503 78.6946 176.407 78.7638 176.3 78.8124C176.194 78.861 176.078 78.8881 175.961 78.8921C175.844 78.8961 175.727 78.8769 175.618 78.8356L172.618 77.717C172.508 77.676 172.407 77.6137 172.321 77.5337C172.235 77.4536 172.166 77.3574 172.118 77.2506C172.069 77.1437 172.042 77.0283 172.039 76.911C172.035 76.7937 172.054 76.6769 172.096 76.5671V76.5671Z" fill="#5297F4"/>
<path d="M152.678 46.8983C151.859 45.9487 150.742 45.3056 149.51 45.0749C148.277 44.8441 147.003 45.0392 145.896 45.6283C146.02 45.5111 146.147 45.3959 146.285 45.2881C147.395 44.4173 148.798 44.0077 150.202 44.1443C151.606 44.281 152.903 44.9535 153.825 46.022L171.96 67.0579L175.238 68.1632L174.75 69.4703L171.068 68.2294L152.678 46.8983Z" fill="#6BC5FF"/>
<path d="M197.931 83.5632C197.804 83.3319 197.633 83.1279 197.428 82.9627C197.222 82.7974 196.986 82.6744 196.733 82.6005C196.48 82.5266 196.215 82.5033 195.953 82.5319C195.691 82.5606 195.437 82.6407 195.206 82.7675L195.198 82.7715C195.239 82.7453 195.273 82.7136 195.316 82.6899L199.806 80.23C200.038 80.1034 200.291 80.0235 200.553 79.995C200.816 79.9665 201.081 79.9898 201.334 80.0638C201.587 80.1377 201.823 80.2608 202.028 80.4259C202.234 80.591 202.405 80.795 202.531 81.0262C202.658 81.2574 202.738 81.5113 202.766 81.7734C202.795 82.0355 202.771 82.3006 202.698 82.5536C202.624 82.8066 202.501 83.0426 202.335 83.2481C202.17 83.4536 201.966 83.6245 201.735 83.7512L197.253 86.2071C197.68 85.9339 197.987 85.5092 198.112 85.0186C198.238 84.5279 198.173 84.0079 197.931 83.5632V83.5632Z" fill="#422C4F"/>
<path d="M196.283 86.4588C195.85 86.4599 195.428 86.3204 195.081 86.0613C194.734 85.8022 194.48 85.4376 194.357 85.0221C194.235 84.6065 194.251 84.1626 194.402 83.7568C194.554 83.351 194.833 83.0053 195.198 82.7715L195.205 82.7676C195.66 82.5145 196.196 82.4488 196.699 82.5843C197.202 82.7198 197.632 83.0459 197.899 83.4933C198.165 83.9408 198.247 84.4745 198.126 84.9811C198.006 85.4878 197.692 85.9275 197.253 86.2071L197.246 86.2111C196.951 86.3734 196.619 86.4586 196.283 86.4588Z" fill="#495375"/>
<path d="M91.8045 11.4103H165.051V12.8529H91.8045V11.4103Z" fill="url(#paint0_linear_1525_198)" fill-opacity="0.2"/>
<path d="M83.1498 14.2837H156.396V15.7263H83.1498V14.2837Z" fill="url(#paint1_linear_1525_198)" fill-opacity="0.2"/>
<path d="M142.943 123.559H216.189V125.002H142.943V123.559Z" fill="url(#paint2_linear_1525_198)" fill-opacity="0.2"/>
<path d="M134.288 126.433H207.534V127.875H134.288V126.433Z" fill="url(#paint3_linear_1525_198)" fill-opacity="0.2"/>
<path d="M82.1947 45.6533H155.441V47.0958H82.1947V45.6533Z" fill="url(#paint4_linear_1525_198)" fill-opacity="0.2"/>
<path d="M50.8648 42.8021H151.382V44.2446H50.8648V42.8021Z" fill="url(#paint5_linear_1525_198)" fill-opacity="0.2"/>
<path d="M62.0896 39.6522H162.606V41.0948H62.0896V39.6522Z" fill="url(#paint6_linear_1525_198)" fill-opacity="0.2"/>
<path d="M133.508 79.7153H206.754V81.1579H133.508V79.7153Z" fill="url(#paint7_linear_1525_198)" fill-opacity="0.2"/>
<path d="M102.178 76.8646H202.695V78.3071H102.178V76.8646Z" fill="url(#paint8_linear_1525_198)" fill-opacity="0.2"/>
<path d="M113.403 73.7143H213.92V75.1569H113.403V73.7143Z" fill="url(#paint9_linear_1525_198)" fill-opacity="0.2"/>
<path d="M17.9178 122.967H91.1641V124.41H17.9178V122.967Z" fill="url(#paint10_linear_1525_198)" fill-opacity="0.2"/>
<path d="M7.87772 120.117H108.395V121.56H7.87772V120.117Z" fill="url(#paint11_linear_1525_198)" fill-opacity="0.2"/>
<path d="M19.1018 116.967H119.619V118.41H19.1018V116.967Z" fill="url(#paint12_linear_1525_198)" fill-opacity="0.2"/>
</g>
<defs>
<linearGradient id="paint0_linear_1525_198" x1="165.051" y1="12.1316" x2="91.8045" y2="12.1316" gradientUnits="userSpaceOnUse">
<stop stop-color="#8FB5FF" stop-opacity="0"/>
<stop offset="0.544" stop-color="#8FB5FF"/>
<stop offset="0.988" stop-color="#8FB5FF" stop-opacity="0"/>
</linearGradient>
<linearGradient id="paint1_linear_1525_198" x1="156.396" y1="15.005" x2="83.1498" y2="15.005" gradientUnits="userSpaceOnUse">
<stop stop-color="#8FB5FF" stop-opacity="0"/>
<stop offset="0.544" stop-color="#8FB5FF"/>
<stop offset="0.988" stop-color="#8FB5FF" stop-opacity="0"/>
</linearGradient>
<linearGradient id="paint2_linear_1525_198" x1="216.189" y1="124.28" x2="142.943" y2="124.28" gradientUnits="userSpaceOnUse">
<stop stop-color="#8FB5FF" stop-opacity="0"/>
<stop offset="0.544" stop-color="#8FB5FF"/>
<stop offset="0.988" stop-color="#8FB5FF" stop-opacity="0"/>
</linearGradient>
<linearGradient id="paint3_linear_1525_198" x1="207.534" y1="127.154" x2="134.288" y2="127.154" gradientUnits="userSpaceOnUse">
<stop stop-color="#8FB5FF" stop-opacity="0"/>
<stop offset="0.544" stop-color="#8FB5FF"/>
<stop offset="0.988" stop-color="#8FB5FF" stop-opacity="0"/>
</linearGradient>
<linearGradient id="paint4_linear_1525_198" x1="155.441" y1="46.3746" x2="82.1947" y2="46.3746" gradientUnits="userSpaceOnUse">
<stop stop-color="#8FB5FF" stop-opacity="0"/>
<stop offset="0.544" stop-color="#8FB5FF"/>
<stop offset="0.988" stop-color="#8FB5FF" stop-opacity="0"/>
</linearGradient>
<linearGradient id="paint5_linear_1525_198" x1="151.382" y1="43.5234" x2="50.8648" y2="43.5234" gradientUnits="userSpaceOnUse">
<stop stop-color="#8FB5FF" stop-opacity="0"/>
<stop offset="0.544" stop-color="#8FB5FF"/>
<stop offset="0.988" stop-color="#8FB5FF" stop-opacity="0"/>
</linearGradient>
<linearGradient id="paint6_linear_1525_198" x1="162.606" y1="40.3735" x2="62.0896" y2="40.3735" gradientUnits="userSpaceOnUse">
<stop stop-color="#8FB5FF" stop-opacity="0"/>
<stop offset="0.544" stop-color="#8FB5FF"/>
<stop offset="0.988" stop-color="#8FB5FF" stop-opacity="0"/>
</linearGradient>
<linearGradient id="paint7_linear_1525_198" x1="206.754" y1="80.4366" x2="133.508" y2="80.4366" gradientUnits="userSpaceOnUse">
<stop stop-color="#8FB5FF" stop-opacity="0"/>
<stop offset="0.544" stop-color="#8FB5FF"/>
<stop offset="0.988" stop-color="#8FB5FF" stop-opacity="0"/>
</linearGradient>
<linearGradient id="paint8_linear_1525_198" x1="202.695" y1="77.5859" x2="102.178" y2="77.5859" gradientUnits="userSpaceOnUse">
<stop stop-color="#8FB5FF" stop-opacity="0"/>
<stop offset="0.544" stop-color="#8FB5FF"/>
<stop offset="0.988" stop-color="#8FB5FF" stop-opacity="0"/>
</linearGradient>
<linearGradient id="paint9_linear_1525_198" x1="213.92" y1="74.4356" x2="113.403" y2="74.4356" gradientUnits="userSpaceOnUse">
<stop stop-color="#8FB5FF" stop-opacity="0"/>
<stop offset="0.544" stop-color="#8FB5FF"/>
<stop offset="0.988" stop-color="#8FB5FF" stop-opacity="0"/>
</linearGradient>
<linearGradient id="paint10_linear_1525_198" x1="91.1641" y1="123.689" x2="17.9178" y2="123.689" gradientUnits="userSpaceOnUse">
<stop stop-color="#8FB5FF" stop-opacity="0"/>
<stop offset="0.544" stop-color="#8FB5FF"/>
<stop offset="0.988" stop-color="#8FB5FF" stop-opacity="0"/>
</linearGradient>
<linearGradient id="paint11_linear_1525_198" x1="108.395" y1="120.838" x2="7.87772" y2="120.838" gradientUnits="userSpaceOnUse">
<stop stop-color="#8FB5FF" stop-opacity="0"/>
<stop offset="0.544" stop-color="#8FB5FF"/>
<stop offset="0.988" stop-color="#8FB5FF" stop-opacity="0"/>
</linearGradient>
<linearGradient id="paint12_linear_1525_198" x1="119.619" y1="117.688" x2="19.1018" y2="117.688" gradientUnits="userSpaceOnUse">
<stop stop-color="#8FB5FF" stop-opacity="0"/>
<stop offset="0.544" stop-color="#8FB5FF"/>
<stop offset="0.988" stop-color="#8FB5FF" stop-opacity="0"/>
</linearGradient>
<clipPath id="clip0_1525_198">
<rect width="300" height="200" fill="white" transform="matrix(-1 0 0 1 300 0)"/>
</clipPath>
</defs>
</svg>
